<svg xmlns="http://www.w3.org/2000/svg" xmlns:xlink="http://www.w3.org/1999/xlink" width="554.933" height="398.713" viewBox="0 0 554.933 398.713">
  <defs>
    <linearGradient id="linear-gradient" x1="0.854" x2="-0.69" y2="2.941" gradientUnits="objectBoundingBox">
      <stop offset="0" stop-color="#ee9f70"/>
      <stop offset="0.477" stop-color="#d941ab"/>
      <stop offset="1" stop-color="#102fc9"/>
    </linearGradient>
    <linearGradient id="linear-gradient-2" x1="0.854" y1="0" x2="0.368" y2="1.04" xlink:href="#linear-gradient"/>
  </defs>
  <g id="image" transform="translate(-80.18 -366)">
    <g id="Graphic-4" transform="translate(80.18 408.818)">
      <g id="Group-73" transform="translate(0 0)">
        <path id="Fill-1" d="M284.079,145.336s.21-.18.646-.5q.7-.5,1.939-1.384c.843-.625,1.951-1.3,3.138-2.272q1.806-1.435,4.139-3.288c1.469-1.338,3.15-2.775,4.908-4.433,1.677-1.743,3.636-3.5,5.454-5.668a102.569,102.569,0,0,0,11.475-15.317,105.138,105.138,0,0,0,15.561-46.866A78.317,78.317,0,0,0,328.4,36.546c-2.869-9.718-8.2-19.359-16.57-26.194A41.587,41.587,0,0,0,297.865,2.9a52.288,52.288,0,0,0-15.3-2.077c-10.207.058-19.916,2.32-28.9,4.985a205.859,205.859,0,0,0-45.731,19.758A211.852,211.852,0,0,0,180.3,44.778c-3.042,2.564-5.4,4.559-6.945,5.977l-1.789,1.576c-.406.351-.63.515-.63.515s.184-.206.571-.578c.416-.393.992-.937,1.732-1.639,1.508-1.459,3.838-3.5,6.851-6.1A205.528,205.528,0,0,1,253.444,5.07c9.011-2.7,18.782-5,29.115-5.066a52.972,52.972,0,0,1,15.55,2.1,42.355,42.355,0,0,1,14.247,7.6c8.537,6.977,13.935,16.776,16.829,26.608a78.846,78.846,0,0,1,2.924,29.364,105.206,105.206,0,0,1-15.827,47.119,101.789,101.789,0,0,1-11.633,15.319c-1.842,2.158-3.827,3.91-5.523,5.642-1.781,1.649-3.484,3.072-4.977,4.394q-2.364,1.822-4.2,3.237c-1.2.949-2.332,1.606-3.19,2.211-.85.564-1.511,1-1.989,1.315-.451.294-.692.426-.692.426" transform="translate(38.182 0)" fill="#102fc9"/>
        <g id="Group-5" transform="translate(0 100.946)">
          <path id="Fill-3" d="M111.392,170.843a84.575,84.575,0,0,1-12.679,2.9,98.338,98.338,0,0,1-35.334-.878,91.771,91.771,0,0,1-11.339-3.2,92.107,92.107,0,0,1-11.668-5.218,81.593,81.593,0,0,1-21.939-17.564A74,74,0,0,1,3.072,119.936a59.072,59.072,0,0,1-1.921-7.971A67.349,67.349,0,0,1,.111,103.7c-.14-1.4-.058-2.8-.1-4.214a34.968,34.968,0,0,1,.108-4.241q.157-2.125.316-4.262.328-2.118.654-4.249A80.763,80.763,0,0,1,5.673,70.367c.936-2.641,2.2-5.119,3.348-7.622.588-1.245,1.3-2.42,1.941-3.625.662-1.195,1.285-2.406,2.041-3.53A98.54,98.54,0,0,1,33.181,31.953a117.844,117.844,0,0,1,23.546-15.4,145.657,145.657,0,0,1,22.838-8.92A192.751,192.751,0,0,1,114.369.9c4.17-.4,7.412-.655,9.615-.749Q125.6.075,126.49.03c.564-.023.854-.013.854-.013s-.287.047-.849.1L124,.321c-2.2.148-5.432.458-9.591.905A199.113,199.113,0,0,0,79.735,8.2a146.669,146.669,0,0,0-22.7,8.976A117.722,117.722,0,0,0,33.682,32.54,98.048,98.048,0,0,0,13.7,56.018c-.752,1.114-1.366,2.316-2.022,3.5-.633,1.2-1.339,2.363-1.922,3.6C8.622,65.6,7.374,68.054,6.447,70.671a80.194,80.194,0,0,0-4.532,16.2q-.325,2.106-.647,4.2-.157,2.113-.313,4.214a34.847,34.847,0,0,0-.108,4.193c.039,1.393-.045,2.787.093,4.164a66.644,66.644,0,0,0,1.023,8.17,58.189,58.189,0,0,0,1.89,7.876,73.438,73.438,0,0,0,15.157,26.688A81.19,81.19,0,0,0,40.7,163.842a91.956,91.956,0,0,0,11.554,5.219A91.682,91.682,0,0,0,63.5,172.29a99.514,99.514,0,0,0,35.162,1.132c4.13-.636,7.311-1.3,9.453-1.812q1.566-.384,2.436-.593c.549-.13.837-.174.837-.174" transform="translate(0 -0.015)" fill="#102fc9"/>
        </g>
        <g id="Group-11" transform="translate(57.007 33.184)">
          <path id="Fill-9" d="M307.5,168.086c-1.583-3.575-1.94-7.535-2.987-11.288-.564-2.019-1.508-4.163-3.4-5.057-1.251-.587-2.733-.51-4.06-.919-4.776-1.43-6.079-8.095-10.6-10.165a15.455,15.455,0,0,0-4.546-.946c-6.052-.713-12.31-2.808-16.115-7.557-1.252-1.535-2.2-3.347-3.729-4.6-1.557-1.254-3.959-1.789-5.465-.511,1.277,2.554,2.529,5.109,3.78,7.635,1.148,2.3,2.323,4.674,4.238,6.359,1.943,1.713,4.8,2.606,7.126,1.533a4.707,4.707,0,0,1,2.4-.843,2.6,2.6,0,0,1,1.559,1c3.293,3.652,2.22,9.7-1,13.433-3.193,3.7-7.943,5.645-12.514,7.458a9.718,9.718,0,0,1-5.109,1c-3.166-.588-4.852-4.036-5.773-7.126-2.067-6.844-3.062-14.275-7.3-20.047-1.354-1.813-3.039-3.473-3.856-5.593-.867-2.3-.664-4.98-2.043-7-1.431-2.119-4.469-3.344-4.673-5.9-.128-1.787,1.353-3.37,2.987-4.137,1.634-.792,3.473-1.021,5.158-1.712.665-.28,1.4-.766,1.431-1.48,0-1.073-1.481-1.507-1.864-2.5-.409-1.122.74-2.171,1.226-3.267,1.046-2.5-1.557-5.032-4.087-6.053-2.5-1.023-5.542-1.762-6.715-4.214a14.5,14.5,0,0,1-.817-3.652c-.587-3.089-2.861-6.078-5.976-6.588-3.142-.512-6.615,2.272-6.1,5.388.306,1.71,1.583,3.039,2.272,4.622.716,1.583.511,3.933-1.122,4.445-2.682.816-5.263-4.086-7.508-2.4.918,3.142,1.812,6.282,2.732,9.45-3.526,1.788-7.738-1.456-9.244-5.134-1.51-3.651-1.559-7.839-3.348-11.364-1.787-3.549-6.614-6.181-9.678-3.678-.153,4.546,5.849,6.385,8.5,10.063,1.916,2.656,1.636,6.973-1.2,8.657-2.809,1.686-7.279-1.251-6.206-4.342.383-1.073,1.275-1.966,1.378-3.116.1-1.43-1.1-2.58-2.195-3.5-1.711-1.457-3.422-2.887-5.133-4.317a10.794,10.794,0,0,0-3.654-2.3c-3.523-1.021-7.047,1.839-8.912,4.981-1.864,3.166-2.912,6.87-5.49,9.5-3.7,3.831-10.725,4.06-14.2.051-3.5-4.01-1.711-11.519,3.423-12.973,1.94-.536,4.391-.486,5.413-2.2,1.787-3.039-3.319-6.921-1.559-9.984,1.354-2.349,4.931-1.277,7.535-2.069,2.58-.792,4.036-3.4,5.568-5.644,1.507-2.222,3.882-4.469,6.539-3.883a8.2,8.2,0,0,1,.279-4.647c.691-1.43,2.631-2.35,3.909-1.43-1.3,2.147.254,5.134,2.529,6.206s4.929.816,7.431.536c2.5-.306,5.645-1.226,5.849-3.728a8.712,8.712,0,0,1,.076-2.453c1.1-2.987,6.616,1.124,8.735-1.277,1.226-1.251-.127-3.474-1.839-3.881-1.685-.435-3.447.2-5.183.254-1.736.077-3.857-.842-3.933-2.578-.077-1.712,1.837-2.939,2.042-4.623.334-2.86-4.52-3.6-6.231-1.277-1.686,2.324-1.1,5.516-.587,8.351.536,2.834.792,6.181-1.3,8.173-.894,1.353-3.217.638-3.982-.792-.794-1.43-.614-3.168-.741-4.776-.128-1.633-.844-3.472-2.427-3.907-1.1-.306-2.272.23-3.4.383-4.443.536-7.533-5.21-6.129-9.45,1.38-4.264,5.413-7,9.322-9.168,2.86-1.585,6.409-3.066,9.245-1.457,1.327.741,2.247,2.018,3.549,2.784,2.249,1.329,5.032.842,7.613.894a17.732,17.732,0,0,1,11.108,4.317c1.15,1.047,2.222,2.783,1.327,4.034-.97,1.329-3.755,1.609-3.268,3.168a5.537,5.537,0,0,0,6.945-4.469,4.646,4.646,0,0,1,2.683,3.78,8.267,8.267,0,0,1,12.131,1,10.394,10.394,0,0,0,2.246,2.886c1.023.665,2.809.332,2.936-.868a2.384,2.384,0,0,0-.2-1.124c-.612-1.736-1.25-3.448-1.864-5.158,2.376-1.277,5.186.715,6.795,2.86,5.976,7.994,10.24,3.192,18.669,4.495,5.695.868,8.2,4.52,11.416,8.939,9.858,13.587,22.883,24.721,31.847,38.921.944,1.481,1.813,2.987,2.629,4.52-.153-.383-.28-.766-.434-1.15A157.048,157.048,0,0,0,299.355,77.4q-1.644-2.684-3.369-5.287c-.716-1.074-1.457-2.171-2.2-3.219-.946-1.378-1.941-2.707-2.937-4.034-.792-1.074-1.582-2.119-2.4-3.142-.562-.715-1.15-1.43-1.736-2.145-.613-.818-1.277-1.609-1.992-2.4l-2.147-2.477a9.052,9.052,0,0,0-.689-.767c-.739-.868-1.532-1.712-2.324-2.554a.715.715,0,0,0-.23-.254c-.2-.23-.434-.461-.663-.691-.64-.715-1.327-1.4-1.994-2.094-1.1-1.124-2.219-2.248-3.369-3.321-.944-.945-1.916-1.839-2.912-2.733-.869-.791-1.737-1.583-2.631-2.349-.867-.767-1.736-1.507-2.63-2.248-1.073-.918-2.17-1.813-3.293-2.705h-.026q-4.635-3.718-9.553-7.024c-.816-.562-1.609-1.1-2.427-1.635-.815-.562-1.659-1.073-2.476-1.583-.84-.51-1.659-1.047-2.5-1.531-.843-.536-1.686-1.023-2.529-1.507-.689-.409-1.353-.792-2.043-1.15a10.769,10.769,0,0,0-1.048-.588c-1.453-.816-2.935-1.609-4.416-2.348-.741-.385-1.481-.766-2.247-1.124-.944-.486-1.916-.945-2.885-1.38a2.421,2.421,0,0,0-.437-.2c-.869-.407-1.736-.816-2.63-1.2-1.251-.536-2.5-1.073-3.756-1.583-1.428-.588-2.858-1.176-4.314-1.712-1.609-.612-3.217-1.2-4.852-1.736-1.637-.562-3.295-1.1-4.956-1.61s-3.32-.969-5.006-1.428c-3.319-.9-6.691-1.686-10.088-2.375-.049-.026-.127-.026-.179-.052-1.3-.256-2.606-.51-3.906-.715a1.145,1.145,0,0,0-.256-.052c-.563-.1-1.149-.2-1.738-.28-2.425-.409-4.878-.741-7.355-1.023-.28-.05-.586-.076-.893-.1-.716-.1-1.43-.153-2.171-.23-1.634-.153-3.269-.28-4.929-.383-1.71-.127-3.446-.2-5.183-.254-1.813-.077-3.627-.1-5.44-.1-4.8,0-9.551.2-14.25.639-1.124.076-2.223.179-3.32.306-1.15.127-2.3.256-3.446.409s-2.3.306-3.424.485c-1.15.179-2.272.358-3.422.562-.971.153-1.966.332-2.937.536q-3.6.688-7.125,1.531-1.65.384-3.294.844c-1.1.28-2.2.588-3.269.894-1.813.51-3.575,1.073-5.338,1.635h-.026c-1.428.485-2.886.971-4.29,1.456a.191.191,0,0,0-.1.052c-1.456.51-2.86,1.047-4.292,1.609-.077.024-.153.052-.23.076-1.3.512-2.6,1.048-3.881,1.585-1.609.663-3.192,1.378-4.751,2.094C92.876,15.389,91.571,16,90.3,16.64c-1.38.689-2.758,1.378-4.113,2.093l-.153.077c-1.3.689-2.6,1.4-3.881,2.145-1.329.741-2.631,1.507-3.934,2.324h-.024c-1.227.741-2.427,1.481-3.627,2.248-.461.28-.9.588-1.354.894-1.277.818-2.5,1.66-3.754,2.528C67.923,30,66.441,31.1,64.96,32.193c-1.3.971-2.578,1.966-3.829,2.963A160.768,160.768,0,0,0,41.056,54.183c-2.171,2.4-4.213,4.852-6.2,7.355-1.686,2.145-3.321,4.316-4.878,6.564q-2.106,2.93-4.065,5.97,1.959-3.036,4.065-5.97c.409-.052.816-.1,1.226-.127,2.3-.179,4.725-.1,6.792-1.1,1.916-.945,3.269-2.656,5.007-3.881,4.443-3.168,11.722-3.754,12.922-9.066.409-1.787-.076-3.73.588-5.44,1.251-3.192,5.517-3.652,8.939-3.6,1.456,0,3.166.2,3.831,1.482a3.657,3.657,0,0,1-.153,2.961A27.763,27.763,0,0,1,57.4,63.734c-4.443,2.707-10.24,4.8-11.466,9.857.612,1.712,3.728,1.585,3.983,3.372.179,1.43-1.659,2.171-2.322,3.448-.971,1.863,1.25,4.137,3.37,4.036s3.881-1.636,5.44-3.065c4.648-4.316,9.525-8.965,11.211-15.094.715-2.528.971-5.491,3.013-7.177a4.993,4.993,0,0,1,7.585,2.427c2.018-1.124,5.16-1.966,6.206.129a10.727,10.727,0,0,1,.433,2.4c.665,3.269,5.135,4.751,5.594,8.045.536,3.805-4.342,5.772-8.148,6.359-3.446.536-6.894,1.073-10.342,1.635a9.553,9.553,0,0,0-4.292,1.378c-1.225.918-1.99,2.655-1.277,4.01a10.16,10.16,0,0,0,1.789,1.839c2.86,2.86.511,8.759-3.525,8.888-1.378.05-2.733-.46-4.111-.511-4.087-.18-7.33,3.422-9.271,7.023s-3.4,7.712-6.665,10.165c-5.261,3.958-14.328,3.039-16.882,9.116-1.023,2.452-.485,5.209-.077,7.841.409,2.6.588,5.517-.945,7.686-1.506,2.147-5.44,2.606-6.562.2a5.893,5.893,0,0,1-.153-3.4c.612-3.78,1.2-7.559,1.787-11.338.433-2.811.816-5.953-.844-8.25-2.322-3.218-7.533-2.912-10.546-.332C7.4,117.008,6.144,121.044,5.3,124.9c-.614,2.859-1.329,6.895-2.912,10.164h0c-.536,3.169-.971,6.386-1.3,9.629-.332,3.32-.562,6.615-.689,9.985a14.335,14.335,0,0,0,1.3-1.225c1.609-1.66,4.852-8.683,7.764-5.236a2.608,2.608,0,0,1,.052,3.192c-.9,1.149-2.681,1.4-3.372,2.656-.842,1.481.332,3.32,1.712,4.292,1.378.995,3.065,1.609,4.034,3.013,1.865,2.682.077,6.742,1.891,9.474,1.557,2.351,4.878,2.5,7.714,2.81.332.051.638.1.969.153.792-5.619,3.422-10.189,11.084-11.927,10.572-2.4,24.466,6.359,30.417,14.328,6.64,8.913,9.781,21.529,19.946,26,7.279,3.193,17.622,2.043,21.172,9.169,3.168,6.385-2.349,13.561-3.193,20.636-.536,4.674,1,9.321,1.354,14,.332,4.7-1.047,10.165-5.313,12.131-2.374,1.073-5.362.946-7.277,2.731-3.4,3.22-.614,9.859-4.01,13.077-1.2,1.125-2.862,1.535-4.316,2.274-7.636,3.856-7.432,15.094-3.883,22.882.129.281.256.536.383.817a161.349,161.349,0,0,0,82.771,22.86,160.623,160.623,0,0,0,75.723-18.85h.026a161.643,161.643,0,0,0,14.277-8.605,159.146,159.146,0,0,0,20.047-15.938,156.373,156.373,0,0,0,12.258-12.8c2.709-3.116,5.263-6.358,7.713-9.679,1.253-1.709,2.477-3.422,3.627-5.183a158.519,158.519,0,0,0,20.073-41.3,156.7,156.7,0,0,0,6.155-27.352c.486-3.626.867-7.3,1.125-11.007a9.29,9.29,0,0,1-6.489,2.886c-3.881-.051-7.073-3.295-8.631-6.87" transform="translate(-0.399 -0.065)" fill="#dbdfe1"/>
        </g>
        <path id="Fill-14" d="M254.338,249.127c-4.057,6.086-4.792,13.691-5.917,20.909s-3.057,14.887-8.626,19.641-15.795,4.473-18.859-2.163c-1.664-3.6-.81-7.852-1.719-11.711-1.181-5.029-5.2-8.91-7.108-13.714-1.628-4.1-1.631-8.624-1.763-13.029-.725-24.067-6.617-49.185-23.071-66.83-2.019-2.167-4.314-4.278-7.185-5.037a9.2,9.2,0,0,0-9.439,3.243c-1.322,1.741-2,3.964-3.62,5.435-3.516,3.2-9.655.907-12-3.219s-2.023-9.18-1.63-13.907q.729-8.788,1.462-17.577c.253-3.065.6-6.354,2.619-8.681,2.872-3.308,8.023-3.463,11.538-6.085,4.606-3.438,5.219-9.994,8.124-14.943s12-7.042,13.342-1.468c9.617-20.5,30.872,9.956,43.509,7.666,3.668-.664,7.256-2.419,10.949-1.906,6.524.909,9.892,8.068,12.113,14.245q5.525,15.383,11.052,30.763c1.4,3.9,3.216,8.247,7.1,9.745,2.975,1.151,6.434.274,9.432,1.36,7.93,2.874,5.353,15.3-1.029,20.806s-15.339,8.97-18.371,16.811c-2.286,5.909-.464,12.833-2.924,18.673-1.759,4.178-5.461,7.2-7.976,10.972" transform="translate(34.202 25.209)" fill="#263238"/>
        <path id="Fill-16" d="M264.6,233.364c-2.628.366-5.729-.916-7.728.81-1.165,1.008-1.424,2.662-1.885,4.121a8.811,8.811,0,0,1-3.724,5.028,5.647,5.647,0,0,1-6.079-.109,4.031,4.031,0,0,1-.834-5.627,28.251,28.251,0,0,1,2.268-1.833c3.489-3.259,1.1-9.3,3.752-13.176,1.566-2.284,4.026-4.6,5.744-6.917,1.321-1.78,1.807-3.192,4.237-3.665,10.629-2.066,15.433,19.82,4.25,21.367" transform="translate(54.398 47.322)" fill="#263238"/>
        <path id="Fill-18" d="M67.11,200.706c-.508-4.622,1.019-9.242,1.094-13.916.051-3.217-.178-6.612-.228-9.854a44.14,44.14,0,0,1-8.166-1.15,2.444,2.444,0,0,1-1.5-.766,3.009,3.009,0,0,1-.33-1.711c-.2-3.624-3.689-6.024-6.817-7.837A27.193,27.193,0,0,0,46.2,163.02c0,.385,0,.74.026,1.125a161.274,161.274,0,0,0,10.225,51.188,154.832,154.832,0,0,0,9.82,21.14c1.577,2.936,3.307,5.821,5.114,8.654,2.238,3.5,4.578,6.922,7.1,10.214,2.34,3.165,4.834,6.254,7.454,9.216A159.177,159.177,0,0,0,97.305,276.3q5.3,4.98,11.066,9.447c-8.777-23.64-17.044-47.77-32.053-67.887-3.943-5.259-8.471-10.62-9.209-17.155" transform="translate(10.32 36.413)" fill="#fff"/>
        <path id="Fill-20" d="M46.231,156.42c-.016,1.044-.052,2.08-.052,3.121,0,.849.026,1.686.039,2.531-.013-.845-.039-1.682-.039-2.531,0-1.041.035-2.077.052-3.121" transform="translate(10.315 34.939)" fill="#263238"/>
        <path id="Fill-22" d="M104.94,268.62q2.1,1.492,4.243,2.905c1,.666,2,1.3,3.024,1.939-1.025-.636-2.025-1.273-3.024-1.939q-2.149-1.413-4.243-2.905" transform="translate(23.44 60)" fill="#263238"/>
        <path id="Fill-24" d="M283.609,202.668c6.381-5.5,8.96-17.932,1.029-20.8-3-1.088-6.456-.21-9.433-1.36-3.883-1.5-5.7-5.84-7.1-9.747q-5.529-15.38-11.054-30.762c-2.22-6.177-5.588-13.335-12.113-14.244-3.693-.515-7.281,1.24-10.949,1.906-12.637,2.288-33.892-28.169-43.509-7.667-1.343-5.575-10.438-3.483-13.341,1.468s-3.52,11.5-8.126,14.942c-3.513,2.622-8.665,2.779-11.538,6.085-2.019,2.327-2.366,5.616-2.619,8.682q-.732,8.788-1.459,17.579c-.394,4.725-.721,9.781,1.628,13.9s8.486,6.418,12,3.219c1.617-1.472,2.3-3.692,3.62-5.435a9.2,9.2,0,0,1,9.441-3.243c2.871.758,5.165,2.871,7.185,5.039,16.453,17.643,22.346,42.763,23.071,66.827.132,4.405.136,8.933,1.762,13.031,1.907,4.8,5.927,8.682,7.11,13.711.907,3.861.053,8.108,1.716,11.711,3.066,6.636,13.293,6.917,18.862,2.165s7.5-12.426,8.625-19.644,1.862-14.822,5.916-20.909c2.515-3.773,6.217-6.793,7.978-10.971,2.459-5.84.636-12.765,2.923-18.673,3.033-7.843,11.99-11.312,18.372-16.813" transform="translate(34.202 25.209)" fill="#fff"/>
        <path id="Fill-26" d="M46.26,153.807v0c-.026.323-.052.619-.052.942-.039,1.008-.035,2.042-.05,3.068.015-1.026.011-2.06.05-3.068,0-.323.026-.619.052-.942" transform="translate(10.31 34.349)" fill="#263238"/>
        <path id="Fill-28" d="M46.185,161.04c.013.809.013,1.623.037,2.422-.024-.8-.024-1.614-.037-2.422" transform="translate(10.316 35.971)" fill="#263238"/>
        <path id="Fill-30" d="M68.808,174.626c-.338-.051-.649-.1-.988-.154-2.884-.311-6.263-.464-7.847-2.837-1.845-2.759-.026-6.858-1.924-9.565-.987-1.419-2.7-2.037-4.106-3.044-1.4-.979-2.6-2.836-1.74-4.331.7-1.264,2.52-1.522,3.43-2.682a2.616,2.616,0,0,0-.051-3.224c-2.963-3.482-6.264,3.61-7.9,5.285a14.286,14.286,0,0,1-1.326,1.239v.026c-.026.31-.052.592-.052.9-.039.966-.036,1.957-.052,2.94s-.051,1.96-.051,2.941c0,.8.025,1.588.039,2.383s.012,1.6.038,2.386a27.9,27.9,0,0,1,5.068,2.476c3.2,1.83,6.756,4.254,6.964,7.915a3.006,3.006,0,0,0,.338,1.727,2.512,2.512,0,0,0,1.534.774,45.592,45.592,0,0,0,8.342,1.161" transform="translate(10.32 33.022)" fill="#fff"/>
        <path id="Fill-32" d="M64.332,178.258c.052,3.235.28,6.622.23,9.831-.077,4.662-1.607,9.272-1.1,13.883.74,6.521,5.284,11.868,9.24,17.115,15.055,20.069,23.349,44.14,32.154,67.725h.026c1.633,1.3,3.292,2.521,4.976,3.719q1.991,1.431,4.022,2.805T118,296.006c.97.612,1.94,1.2,2.935,1.782-.127-.281-.256-.535-.383-.816C117,289.206,116.8,278,124.43,274.152c1.453-.736,3.115-1.145,4.312-2.267,3.395-3.209.614-9.831,4.008-13.041,1.915-1.781,4.9-1.654,7.273-2.724,4.261-1.961,5.638-7.411,5.307-12.1-.356-4.662-1.888-9.3-1.352-13.959.842-7.055,6.354-14.212,3.189-20.579-3.547-7.107-13.882-5.96-21.153-9.143-10.159-4.458-13.3-17.04-19.933-25.929-5.946-7.947-19.828-16.683-30.394-14.289-7.656,1.734-10.284,6.291-11.076,11.895" transform="translate(14.152 35.676)" fill="#fff"/>
        <path id="Fill-34" d="M56.166,133.561c3.011-2.579,8.216-2.886,10.537.332,1.659,2.3,1.276,5.44.841,8.25-.587,3.779-1.173,7.558-1.786,11.337a5.911,5.911,0,0,0,.153,3.4c1.123,2.4,5.051,1.943,6.557-.2,1.53-2.17,1.353-5.082.944-7.685-.409-2.631-.944-5.39.077-7.841,2.55-6.078,11.607-5.16,16.863-9.118,3.266-2.45,4.72-6.562,6.659-10.164s5.18-7.2,9.261-7.022c1.377.051,2.73.562,4.109.51,4.03-.127,6.378-6.025,3.52-8.887a10.086,10.086,0,0,1-1.786-1.837c-.714-1.354.051-3.092,1.276-4.01a9.531,9.531,0,0,1,4.285-1.378c3.444-.564,6.889-1.1,10.333-1.636,3.8-.586,8.675-2.554,8.139-6.357-.459-3.295-4.923-4.776-5.587-8.045a10.763,10.763,0,0,0-.434-2.4c-1.045-2.093-4.183-1.251-6.2-.127a4.987,4.987,0,0,0-7.579-2.427c-2.039,1.686-2.3,4.649-3.009,7.177-1.683,6.129-6.557,10.776-11.2,15.093-1.556,1.428-3.316,2.961-5.434,3.063s-4.337-2.171-3.367-4.034c.663-1.277,2.5-2.018,2.321-3.448-.256-1.787-3.367-1.66-3.98-3.372,1.224-5.056,7.016-7.15,11.456-9.856a27.763,27.763,0,0,0,11.71-14.4A3.651,3.651,0,0,0,115,65.5c-.662-1.277-2.372-1.48-3.827-1.48-3.419-.052-7.68.407-8.928,3.6-.664,1.71-.179,3.652-.587,5.44-1.2,5.312-8.47,5.9-12.91,9.066-1.734,1.225-3.087,2.935-5,3.881-2.067,1-4.49.921-6.787,1.1-.409.026-.816.077-1.224.127q-2.1,2.932-4.06,5.969T67.9,99.367A159.846,159.846,0,0,0,53.92,130.575q-1.872,5.724-3.309,11.637T48.18,154.2c1.583-3.269,2.3-7.3,2.909-10.164.843-3.857,2.093-7.891,5.077-10.471" transform="translate(10.762 14.3)" fill="#fff"/>
        <path id="Fill-38" d="M301.62,112.887q1.286,3.195,2.422,6.432-1.138-3.241-2.422-6.432s.031-.027,0-.027Z" transform="translate(67.371 25.209)" fill="#263238"/>
        <path id="Fill-40" d="M340.96,180.352q-.02-3.477-.208-6.907t-.531-6.829c-.177-1.836-.382-3.646-.635-5.455q-.376-2.866-.851-5.7a156.917,156.917,0,0,0-3.764-16.722q-.9-3.154-1.915-6.254t-2.164-6.157V126.3c-.814-1.53-1.681-3.033-2.623-4.512-8.946-14.17-21.945-25.281-31.784-38.839-3.21-4.41-5.709-8.054-11.392-8.921-8.411-1.3-12.667,3.492-18.629-4.485-1.605-2.141-4.411-4.128-6.78-2.854.612,1.708,1.248,3.415,1.858,5.147a2.406,2.406,0,0,1,.2,1.122c-.127,1.2-1.911,1.53-2.93.866a10.387,10.387,0,0,1-2.242-2.88,8.251,8.251,0,0,0-12.106-.993,4.632,4.632,0,0,0-2.677-3.772,5.527,5.527,0,0,1-6.933,4.459c-.483-1.556,2.294-1.835,3.263-3.161.892-1.249-.179-2.981-1.324-4.026a17.7,17.7,0,0,0-11.087-4.308c-2.575-.051-5.353.434-7.6-.89-1.3-.767-2.218-2.041-3.543-2.779-2.83-1.605-6.371-.129-9.227,1.453-3.9,2.165-7.925,4.893-9.3,9.149-1.4,4.231,1.682,9.965,6.118,9.43,1.122-.153,2.3-.688,3.39-.382,1.581.434,2.3,2.269,2.421,3.9.127,1.605-.051,3.339.74,4.766.765,1.427,3.084,2.141,3.976.791,2.088-1.988,1.834-5.327,1.3-8.156-.509-2.83-1.095-6.015.587-8.334,1.708-2.319,6.551-1.58,6.218,1.274-.2,1.681-2.116,2.905-2.039,4.614.077,1.732,2.192,2.65,3.925,2.573,1.735-.05,3.493-.688,5.174-.254,1.71.407,3.06,2.624,1.837,3.873-2.118,2.4-7.622-1.707-8.718,1.274a8.768,8.768,0,0,0-.077,2.448c-.2,2.5-3.337,3.415-5.837,3.72-2.5.28-5.148.535-7.415-.535s-3.824-4.051-2.524-6.192c-1.275-.919-3.21,0-3.9,1.425a8.178,8.178,0,0,0-.28,4.638c-2.65-.585-5.022,1.657-6.524,3.875-1.53,2.243-2.983,4.842-5.555,5.633-2.6.791-6.168-.28-7.52,2.065-1.758,3.057,3.34,6.931,1.556,9.964-1.021,1.708-3.468,1.659-5.4,2.193-5.122,1.451-6.908,8.945-3.416,12.946,3.467,4,10.477,3.772,14.171-.051,2.573-2.624,3.619-6.32,5.481-9.479,1.86-3.135,5.377-5.99,8.893-4.971a10.779,10.779,0,0,1,3.647,2.293c1.707,1.428,3.416,2.854,5.122,4.309,1.1.918,2.293,2.063,2.19,3.49-.1,1.148-.992,2.039-1.374,3.11-1.07,3.084,3.39,6.015,6.193,4.332,2.828-1.681,3.11-5.99,1.2-8.639-2.65-3.67-8.638-5.505-8.486-10.042,3.06-2.5,7.876.129,9.66,3.671,1.785,3.517,1.836,7.7,3.34,11.341,1.5,3.67,5.708,6.907,9.225,5.123-.918-3.161-1.811-6.3-2.726-9.43,2.241-1.681,4.816,3.21,7.492,2.4,1.631-.511,1.835-2.855,1.121-4.433-.686-1.582-1.961-2.907-2.268-4.613-.508-3.11,2.957-5.889,6.092-5.378,3.11.51,5.378,3.492,5.964,6.575a14.59,14.59,0,0,0,.815,3.643c1.173,2.448,4.206,3.187,6.7,4.206,2.523,1.019,5.121,3.542,4.076,6.041-.483,1.094-1.631,2.141-1.222,3.26.384.995,1.862,1.429,1.862,2.5-.027.712-.765,1.2-1.429,1.478-1.682.689-3.517.916-5.147,1.707-1.633.766-3.112,2.345-2.984,4.129.2,2.548,3.237,3.773,4.666,5.887,1.374,2.014,1.172,4.69,2.038,6.984.816,2.114,2.5,3.772,3.849,5.581,4.232,5.76,5.225,13.176,7.288,20.007.919,3.083,2.6,6.523,5.762,7.109a9.7,9.7,0,0,0,5.1-.992c4.561-1.809,9.3-3.746,12.487-7.443,3.211-3.721,4.282-9.76.995-13.406a2.6,2.6,0,0,0-1.554-.995,4.7,4.7,0,0,0-2.4.843c-2.319,1.069-5.171.177-7.11-1.53-1.912-1.681-3.084-4.052-4.229-6.346-1.25-2.521-2.5-5.071-3.774-7.619,1.5-1.275,3.9-.741,5.455.509,1.529,1.249,2.474,3.057,3.72,4.589,3.8,4.738,10.043,6.829,16.084,7.541a15.388,15.388,0,0,1,4.535.943c4.513,2.065,5.812,8.716,10.578,10.144,1.324.407,2.8.33,4.053.918,1.885.892,2.827,3.033,3.389,5.046,1.045,3.746,1.4,7.7,2.981,11.265,1.555,3.567,4.743,6.8,8.616,6.856a9.265,9.265,0,0,0,6.473-2.88v-.026c.2-3.516.332-7.034.332-10.6,0-.74,0-1.478-.051-2.217" transform="translate(38.477 12.236)" fill="#fff"/>
        <path id="Fill-42" d="M260.345,212c-2.428.473-2.914,1.885-4.235,3.665-1.716,2.313-4.179,4.633-5.744,6.917-2.653,3.873-.264,9.917-3.751,13.177a28.534,28.534,0,0,0-2.271,1.83,4.034,4.034,0,0,0,.837,5.629,5.649,5.649,0,0,0,6.078.111,8.809,8.809,0,0,0,3.723-5.028c.462-1.463.721-3.116,1.886-4.125,2-1.725,5.1-.443,7.728-.809,11.183-1.548,6.379-23.434-4.251-21.367" transform="translate(54.398 47.322)" fill="#ececec"/>
        <g id="Group-58" transform="translate(109.847 58.872)">
          <path id="Fill-56" d="M.031,15.469s1.252-.92,3.789-2.43A85.261,85.261,0,0,1,15.389,7.312,95.686,95.686,0,0,1,35.042,1.768,105.975,105.975,0,0,1,47.726.327C49.98.149,52.3.08,54.692.043c2.386-.1,4.836.014,7.345.044A141.579,141.579,0,0,1,94.455,4.895,120.379,120.379,0,0,1,128.78,20.164a101.335,101.335,0,0,1,29.408,29.164,95.308,95.308,0,0,1,15.4,41.627,83.557,83.557,0,0,1-.333,21.479l-.666-.381a63.907,63.907,0,0,1,18.163-10.164,67.463,67.463,0,0,1,19.79-3.759,61.182,61.182,0,0,1,36.072,9.979A65.214,65.214,0,0,1,268.93,133.5a60.848,60.848,0,0,1,6.336,28.626,64.527,64.527,0,0,1-14.85,39.039,60.857,60.857,0,0,1-8.113,8.1c-1.026.779-1.814,1.376-2.371,1.8-.535.4-.822.59-.822.59s.253-.232.774-.653c.542-.436,1.314-1.05,2.319-1.853a64.009,64.009,0,0,0,7.978-8.17,65.605,65.605,0,0,0,9.364-15.467,64.863,64.863,0,0,0,5.164-23.4,60.374,60.374,0,0,0-6.368-28.318,64.632,64.632,0,0,0-22.128-25.066,60.506,60.506,0,0,0-35.638-9.8,66.9,66.9,0,0,0-19.546,3.731,63.226,63.226,0,0,0-17.917,10.039l-.82.658.153-1.039a82.874,82.874,0,0,0,.325-21.263,94.651,94.651,0,0,0-15.258-41.271A100.769,100.769,0,0,0,128.361,20.8,119.981,119.981,0,0,0,94.273,5.556,141.763,141.763,0,0,0,62.018.672C59.519.634,57.079.508,54.7.6c-2.38.027-4.695.084-6.943.254a106.669,106.669,0,0,0-12.64,1.369A97.022,97.022,0,0,0,15.508,7.611,90.036,90.036,0,0,0,3.9,13.184c-1.29.716-2.237,1.32-2.884,1.711s-.99.575-.99.575" transform="translate(-0.031 -0.003)" fill="#102fc9"/>
        </g>
      </g>
      <circle id="Oval" cx="5" cy="5" r="5" transform="translate(148.82 162.614)" fill="#eb9278"/>
      <circle id="Oval-Copy-3" cx="8.5" cy="8.5" r="8.5" transform="translate(173.82 91.614)" fill="#102fc9"/>
      <ellipse id="Oval-Copy" cx="4.5" cy="5" rx="4.5" ry="5" transform="translate(177.82 293.614)" fill="#ee9e71"/>
      <ellipse id="Oval-Copy-2" cx="4.5" cy="5" rx="4.5" ry="5" transform="translate(221.82 48.614)" fill="#855ccc"/>
    </g>
    <g id="_5ee05b9d6a85ef2ca702bb1b_feature" data-name="5ee05b9d6a85ef2ca702bb1b_feature" transform="translate(107.094 366)">
      <g id="Group-61" transform="translate(92.976 129.677)">
        <g id="Fill-1-Clipped" transform="translate(0 79.828)">
          <path id="Fill-1-2" data-name="Fill-1" d="M120.54,7.631C108.695-3.345,87.7-2.057,77.285,10.282c-4.109,4.867-6.891,11.239-12.535,14.192C56.1,29,45.627,23.286,35.894,24.117c-11.412.976-20.78,12.55-19.355,23.914.642,5.118,3.069,10.584.662,15.147C14.131,69,5.252,69.234,1.517,74.655c-3.371,4.9-.743,12.124,4.147,15.5s11.212,3.794,17.151,3.524,11.969-1.1,17.766.218c6.379,1.448,11.891,5.362,17.962,7.8,14.612,5.856,31.721,2.595,45.257-5.445s24-20.339,33.135-33.162" transform="translate(0 -0.151)" fill="url(#linear-gradient)"/>
        </g>
        <path id="Fill-7" d="M110.513,84.733c-9.635-9.451-27.558-8.122-35.691,2.649-4.969,6.579-7.814,16.631-15.984,17.736-5.54.75-10.786-3.42-16.359-2.991-7.421.571-11.921,9.616-10.012,16.809s8.24,12.377,14.876,15.745c23.008,11.686,53.672,5.511,70.365-14.169" transform="translate(7.154 17.512)" fill="#fff"/>
        <path id="Fill-9-2" data-name="Fill-9" d="M277.725,108.569,265.27,90.916l16.2-11.49,11.348,23.049-14.343,5.936" transform="translate(59.252 17.741)" fill="#ffbe9d"/>
        <path id="Fill-11" d="M290,95.685l8.812,15.9s19.124-3.616,21.038-.836l-30.221,18.2L274.88,104.732Z" transform="translate(61.398 21.372)" stroke="rgba(0,0,0,0)" stroke-width="1" fill="url(#linear-gradient-2)"/>
        <path id="Fill-13" d="M286.225,112.285a1.44,1.44,0,0,0,0,1.922,1.386,1.386,0,0,0,1.906.023,1.52,1.52,0,0,0-.006-2.036,1.435,1.435,0,0,0-1.984.2" transform="translate(63.85 24.992)" fill="#fff"/>
        <path id="Fill-15" d="M287.188,126.347l-1.391-2.5,29.5-16.511s1.7-.224,2.116.815Z" transform="translate(63.837 23.971)" fill="#fff"/>
        <path id="Fill-17" d="M295.113,108.324c.084.15-.614.661-1.055,1.573-.464.9-.453,1.765-.625,1.787-.153.054-.464-.962.088-2.055s1.541-1.461,1.592-1.305" transform="translate(65.492 24.188)" fill="#263238"/>
        <path id="Fill-19" d="M298.205,107.834c.12.121-.369.757-.494,1.683-.153.922.127,1.674-.022,1.756-.126.108-.749-.7-.571-1.845s1-1.734,1.088-1.594" transform="translate(66.359 24.081)" fill="#263238"/>
        <path id="Fill-21" d="M301.5,110.634c-.114.113-.765-.5-.872-1.537s.39-1.774.527-1.688c.154.071-.032.776.07,1.625.081.85.413,1.5.275,1.6" transform="translate(67.146 23.99)" fill="#263238"/>
        <path id="Fill-23" d="M293.353,105.557c.02.171-.781.376-1.581.935-.811.542-1.292,1.212-1.445,1.132-.149-.054.155-.982,1.107-1.627s1.922-.6,1.918-.439" transform="translate(64.841 23.555)" fill="#263238"/>
        <path id="Fill-25" d="M292.344,103.064c.038.06-.489.5-1.518.9a8.067,8.067,0,0,1-1.877.466,8.449,8.449,0,0,1-1.148.062,2.186,2.186,0,0,1-.672-.081.752.752,0,0,1-.54-.745.947.947,0,0,1,.443-.725,2.307,2.307,0,0,1,.615-.264,6.318,6.318,0,0,1,1.135-.243,6.241,6.241,0,0,1,1.948.076c1.092.228,1.663.634,1.63.694-.038.089-.657-.168-1.693-.275a6.994,6.994,0,0,0-1.807.053,6.526,6.526,0,0,0-1.03.256c-.372.109-.645.27-.642.462,0,.071.013.1.136.148a1.741,1.741,0,0,0,.493.058,9.112,9.112,0,0,0,1.074-.023,9.922,9.922,0,0,0,1.8-.319,12.218,12.218,0,0,1,1.652-.5" transform="translate(64.013 22.871)" fill="#263238"/>
        <path id="Fill-27" d="M291.649,104.233c-.039.055-.651-.3-1.28-1.221a5.709,5.709,0,0,1-.959-2.933,1.458,1.458,0,0,1,.506-1.345.825.825,0,0,1,.886.041,2.417,2.417,0,0,1,.489.461,3.943,3.943,0,0,1,.614,1.019,4.073,4.073,0,0,1,.3,1.952c-.121,1.139-.63,1.687-.672,1.643a14.609,14.609,0,0,0,.247-1.663,4.092,4.092,0,0,0-.377-1.71,3.577,3.577,0,0,0-.555-.859c-.24-.293-.516-.479-.617-.375a1.011,1.011,0,0,0-.231.815,5.945,5.945,0,0,0,.119,1.046,6.338,6.338,0,0,0,.617,1.687c.492.913.982,1.37.916,1.44" transform="translate(64.644 22.029)" fill="#263238"/>
        <path id="Fill-29" d="M237.746,56.852l38.688,60.8,21.161-14.386L261.95,30.014" transform="translate(53.104 6.704)" fill="#263238"/>
        <path id="Fill-31" d="M240.739,41.046c.159.071-.995,2.538-1.546,5.807-.582,3.264-.328,5.975-.5,5.989a13.641,13.641,0,0,1-.05-6.085,13.649,13.649,0,0,1,2.1-5.711" transform="translate(53.241 9.168)" fill="#455a64"/>
        <path id="Fill-33" d="M237.112,41.189c.169.012.009,2.669.442,5.9.414,3.231,1.253,5.755,1.092,5.811A15.458,15.458,0,0,1,237,47.157a15.43,15.43,0,0,1,.113-5.968" transform="translate(52.893 9.2)" fill="#455a64"/>
        <path id="Fill-35" d="M123.124,53.3,96.582,45.107c-32.016,40.768-29.88,85.561,21.66,112.075l28.6-32.058Z" transform="translate(16.85 10.075)" fill="#162329"/>
        <path id="Fill-37" d="M120.852,54.673c-16.985,9.908-25.431,30.794-23.363,51.214,2.268,22.417,17.081,44.268,44.229,50.309L324.23,119.709a55.46,55.46,0,1,0-23.867-108.3Z" transform="translate(21.707 2.201)" fill="#d1d8ff"/>
        <g id="Fill-41-Clipped" transform="translate(139.356 141.471)">
          <path id="Fill-41" d="M24.46,17.306.392,72.045S113.965,61.09,109.127.379Z" transform="translate(-0.392 -0.379)" fill="#bf3faf"/>
        </g>
        <path id="Fill-44" d="M209.435,36.16s-54.609-53-124.03-30.671l38.076,51.386Z" transform="translate(19.076 0)" fill="#bf3faf"/>
        <g id="Fill-46-Clipped" transform="translate(328.218 10.371)">
          <path id="Fill-46" d="M.771,3.061c23.435,17.286,37.766,84.581,26.473,105.97C93.67,89.6,107.6,32.571,107.6,32.571,59.58-12.125.771,3.061.771,3.061" transform="translate(-0.771 -0.575)" fill="#102fc9"/>
        </g>
        <path id="Fill-49" d="M108.727,109.015c.116.1-3.536,4.469-8.157,9.755s-8.463,9.486-8.579,9.384,3.534-4.468,8.157-9.754,8.463-9.488,8.579-9.386" transform="translate(20.547 24.35)" fill="#455a64"/>
        <path id="Fill-51" d="M409.385,34.631s-.13.25-.41.722-.71,1.184-1.255,2.094-1.247,2.058-2.059,3.4q-.611,1.008-1.316,2.166L402.7,45.377c-1.178,1.664-2.459,3.538-3.917,5.545q-2.338,2.9-5.068,6.29c-.953,1.088-1.988,2.176-3.031,3.32-1.068,1.119-2.083,2.357-3.288,3.477-2.384,2.262-4.841,4.727-7.7,7A104,104,0,0,1,359.8,84.135a99.92,99.92,0,0,1-12.226,5.232c-2.143.787-4.372,1.464-6.559,2.263a65.883,65.883,0,0,1-6.939,1.783c-18.821,4.162-39.571,8.429-61.343,12.951-43.566,9-83.031,17.026-111.6,22.8-14.277,2.87-25.835,5.192-33.842,6.8l-9.206,1.818-2.4.459c-.541.1-.821.137-.821.137s.273-.075.81-.193q.829-.18,2.386-.513l9.186-1.922,33.806-6.974,111.568-22.964c21.77-4.52,42.528-8.774,61.341-12.906a65.362,65.362,0,0,0,6.873-1.749c2.225-.809,4.431-1.475,6.576-2.256a100.3,100.3,0,0,0,12.182-5.183,104.233,104.233,0,0,0,19.845-13.015c2.858-2.256,5.314-4.7,7.7-6.948,1.2-1.113,2.223-2.344,3.294-3.455,1.045-1.136,2.082-2.215,3.041-3.3q2.738-3.361,5.09-6.247c1.468-1.995,2.76-3.854,3.95-5.506l1.669-2.351,1.336-2.149c.829-1.325,1.53-2.45,2.1-3.364l1.3-2.065c.3-.464.46-.694.46-.694" transform="translate(25.656 7.735)" fill="#263238" opacity="0.335"/>
        <path id="Fill-53" d="M219.209,132.694a1.241,1.241,0,0,1-.195-.215c-.137-.176-.311-.394-.524-.664l-1.975-2.595-1.417-1.883c-.5-.7-1-1.493-1.561-2.328-1.091-1.688-2.427-3.554-3.646-5.778l-1.992-3.441c-.684-1.2-1.288-2.507-1.973-3.83-1.409-2.628-2.627-5.572-3.969-8.64a138.429,138.429,0,0,1-6.539-20.769,138.6,138.6,0,0,1-2.891-21.586c-.087-3.35-.232-6.533-.071-9.51.059-1.488.051-2.928.163-4.306s.234-2.7.343-3.962c.16-2.529.577-4.786.851-6.778.153-.995.269-1.924.424-2.77q.264-1.26.484-2.306c.291-1.35.522-2.415.688-3.186.08-.336.142-.607.193-.825a1.234,1.234,0,0,1,.084-.277,1.172,1.172,0,0,1-.028.29c-.035.22-.081.5-.138.837-.141.774-.336,1.844-.585,3.2q-.2,1.048-.434,2.31c-.139.847-.242,1.776-.379,2.77-.242,1.992-.632,4.245-.766,6.769q-.147,1.889-.307,3.951c-.1,1.374-.08,2.809-.128,4.292-.141,2.967.021,6.137.121,9.472a141.857,141.857,0,0,0,2.923,21.491,141.971,141.971,0,0,0,6.469,20.695c1.324,3.063,2.521,6,3.907,8.629.674,1.322,1.266,2.63,1.939,3.831s1.33,2.349,1.951,3.45c1.193,2.227,2.5,4.1,3.567,5.8.544.84,1.033,1.641,1.517,2.349q.751,1.04,1.374,1.907,1.2,1.686,1.888,2.652l.48.7a.963.963,0,0,1,.149.25" transform="translate(42.972 6.04)" fill="#263238" opacity="0.335"/>
        <path id="Fill-55" d="M193.31,67.258,78.845,90.954s-.512,11.179,2.3,11.271C83.492,102.3,168.6,86.943,196.2,81.949a7.486,7.486,0,1,0-2.888-14.691" transform="translate(17.603 14.988)" fill="#526be8"/>
        <path id="Fill-57" d="M276.427,63.271c-.021,14.046-12.285,25.414-27.4,25.394S221.686,77.24,221.707,63.193,233.992,37.778,249.1,37.8s27.345,11.425,27.325,25.471" transform="translate(49.521 8.443)" fill="#fafafa"/>
        <path id="Fill-59" d="M276.478,63.314a2.519,2.519,0,0,1-.053-.427c-.022-.31-.055-.724-.093-1.252-.018-.277-.04-.585-.062-.92-.06-.338-.124-.7-.193-1.1s-.143-.824-.221-1.279c-.1-.451-.254-.922-.391-1.425a24.494,24.494,0,0,0-1.174-3.265,25.97,25.97,0,0,0-2.023-3.594,26.312,26.312,0,0,0-7.056-7.07A27.624,27.624,0,0,0,253.991,38.5a25.081,25.081,0,0,0-3.315-.349c-.565-.018-1.134-.07-1.708-.061l-1.732.082-.876.043-.875.125-1.768.251-1.759.418-.888.213-.869.3a26.977,26.977,0,0,0-12.6,8.5,23.651,23.651,0,0,0-.044,30.431A26.96,26.96,0,0,0,240.134,87l.87.3.887.215,1.758.424,1.767.255.873.127.877.045,1.733.088c.574.009,1.141-.041,1.707-.057a25.164,25.164,0,0,0,3.318-.34,27.612,27.612,0,0,0,11.229-4.447,26.065,26.065,0,0,0,9.109-10.636,24.554,24.554,0,0,0,1.184-3.263c.138-.5.294-.972.394-1.423q.121-.683.225-1.279c.072-.4.136-.76.2-1.1.023-.335.045-.643.064-.919.042-.53.075-.943.1-1.252a2.551,2.551,0,0,1,.054-.426,2.567,2.567,0,0,1,0,.427c-.011.311-.026.727-.043,1.257-.012.281-.024.59-.039.929-.051.339-.109.709-.17,1.108s-.13.833-.2,1.293c-.092.458-.242.932-.373,1.444a24.029,24.029,0,0,1-1.149,3.312,26.04,26.04,0,0,1-2.016,3.652,26.448,26.448,0,0,1-7.115,7.2A27.889,27.889,0,0,1,254,88.517a25.522,25.522,0,0,1-3.369.36c-.574.02-1.152.072-1.735.066l-1.763-.083-.891-.043-.889-.126-1.8-.254-1.79-.425-.9-.218-.886-.3a27.441,27.441,0,0,1-12.838-8.687,24.159,24.159,0,0,1,.046-31.128,27.45,27.45,0,0,1,12.859-8.648l.887-.3.9-.215,1.792-.419,1.8-.25.891-.124.891-.041,1.762-.076c.584-.006,1.162.048,1.737.07a25.344,25.344,0,0,1,3.367.368,27.919,27.919,0,0,1,11.364,4.61,26.413,26.413,0,0,1,7.094,7.224,25.707,25.707,0,0,1,2.005,3.657,24.136,24.136,0,0,1,1.141,3.316c.131.51.278.987.371,1.444q.1.691.2,1.294c.06.4.116.769.166,1.108.013.34.024.649.037.929.015.532.029.947.039,1.258a2.648,2.648,0,0,1-.006.428" transform="translate(49.47 8.4)" fill="#263238"/>
      </g>
      <g id="Group-219" transform="translate(222.652)">
        <path id="Fill-1-3" data-name="Fill-1" d="M86.589,110.916c-8.8-.436-13.135,6.2-18.055,7.541s-10.3,1.563-15.021-.355c-6.133-2.488-10.329-8.143-15.7-12.009C27.032,98.334,11.069,98.8.753,107.16c-.244,5.866,4.782,10.5,9.637,13.8s18.334,8.033,20.053,13.647c1.287,4.2-7.771,7.733-5.495,11.493,2.189,3.615,9.828,3.375,13.993,2.657,26.29-4.525,17.071,3.516,25.208,2.771,0,0,17.043-4.339,30.4-6.523" transform="translate(0.167 22.463)" fill="#455a64"/>
        <path id="Fill-3-2" data-name="Fill-3" d="M144.906,240.619l-8.539-19.845,18.226-7.894,6.339,24.9-15.259,2.844" transform="translate(30.461 47.55)" fill="#ffbe9d"/>
        <path id="Fill-5" d="M159.483,230.591l5.336,17.382s19.458.412,20.756,3.529l-33.328,11.556-9.425-26.742Z" transform="translate(31.902 51.506)" stroke="rgba(0,0,0,0)" stroke-width="1" fill="url(#linear-gradient-2)"/>
        <path id="Fill-7-2" data-name="Fill-7" d="M152.078,246.58a1.438,1.438,0,0,0-.4,1.879,1.386,1.386,0,0,0,1.861.416,1.523,1.523,0,0,0,.415-1.994,1.438,1.438,0,0,0-1.982-.217" transform="translate(33.837 55.027)" fill="#fff"/>
        <g id="Fill-9-Clipped" transform="translate(183.306 301.773)">
          <path id="Fill-9-3" data-name="Fill-9" d="M1.08,12.9.236,10.163,32.506.1s1.707.131,1.9,1.235Z" transform="translate(-0.236 -0.105)" fill="#fff"/>
        </g>
        <path id="Fill-12" d="M161.642,244.517c.053.164-.736.52-1.355,1.321-.64.785-.809,1.632-.98,1.62-.161.021-.257-1.036.511-1.993s1.808-1.111,1.824-.948" transform="translate(35.56 54.604)" fill="#263238"/>
        <path id="Fill-14-2" data-name="Fill-14" d="M164.748,244.7c.093.146-.516.667-.831,1.548-.34.87-.223,1.663-.387,1.711-.143.08-.587-.836-.175-1.923s1.335-1.49,1.392-1.336" transform="translate(36.451 54.651)" fill="#263238"/>
        <path id="Fill-16-2" data-name="Fill-16" d="M167.373,248.147c-.137.086-.645-.65-.536-1.685s.747-1.655.864-1.544c.138.1-.191.752-.267,1.6-.1.85.1,1.554-.061,1.625" transform="translate(37.263 54.703)" fill="#263238"/>
        <path id="Fill-18-2" data-name="Fill-18" d="M160.466,241.418c-.017.171-.84.206-1.74.588-.905.362-1.515.919-1.648.809-.136-.083.356-.929,1.419-1.363s2-.19,1.968-.034" transform="translate(35.082 53.876)" fill="#263238"/>
        <path id="Fill-20-2" data-name="Fill-20" d="M159.966,238.781a3.323,3.323,0,0,1-1.672.569,7.988,7.988,0,0,1-1.933.07,8.425,8.425,0,0,1-1.133-.176,2.17,2.17,0,0,1-.641-.218.752.752,0,0,1-.376-.84.941.941,0,0,1,.585-.619,2.286,2.286,0,0,1,.657-.131,6.341,6.341,0,0,1,1.16,0,6.219,6.219,0,0,1,1.89.476c1.022.448,1.495.965,1.451,1.017-.055.078-.607-.3-1.6-.619a7.11,7.11,0,0,0-1.779-.323,6.66,6.66,0,0,0-1.062.037c-.384.029-.685.132-.723.321-.01.071-.006.1.1.174a1.775,1.775,0,0,0,.471.158,9.486,9.486,0,0,0,1.056.2,9.906,9.906,0,0,0,1.828.059,11.812,11.812,0,0,1,1.719-.148" transform="translate(34.44 53.028)" fill="#263238"/>
        <path id="Fill-22-2" data-name="Fill-22" d="M159.06,239.836c-.049.045-.574-.427-1-1.459a5.75,5.75,0,0,1-.406-1.906,5.831,5.831,0,0,1,.073-1.161,1.462,1.462,0,0,1,.772-1.212.826.826,0,0,1,.86.224,2.378,2.378,0,0,1,.383.553,3.9,3.9,0,0,1,.39,1.123,4.044,4.044,0,0,1-.114,1.972c-.354,1.089-.964,1.519-1,1.469a14.484,14.484,0,0,0,.587-1.577,4.092,4.092,0,0,0-.016-1.752,3.669,3.669,0,0,0-.366-.954c-.175-.335-.406-.576-.527-.494-.165.056-.355.421-.394.751a6.036,6.036,0,0,0-.1,1.047,6.4,6.4,0,0,0,.254,1.779c.294.992.679,1.543.6,1.6" transform="translate(35.215 52.279)" fill="#263238"/>
        <path id="Fill-24-2" data-name="Fill-24" d="M73.705,109.57s-15.79,31.278-5.177,38.607,60.189,44.586,60.189,44.586L154,260.249l23.678-9.7-19.734-79.042-49.814-44.742Z" transform="translate(14.488 24.474)" fill="#162329"/>
        <path id="Fill-26-2" data-name="Fill-26" d="M122.635,167.434c.139.1-1.5,2.278-2.715,5.36-1.244,3.074-1.556,5.78-1.729,5.757a16.942,16.942,0,0,1,4.443-11.117" transform="translate(26.39 37.398)" fill="#455a64"/>
        <path id="Fill-28-2" data-name="Fill-28" d="M118.865,166.9c.163.046-.544,2.612-.787,5.859-.264,3.247.037,5.891-.133,5.913a20.082,20.082,0,0,1,.92-11.771" transform="translate(26.235 37.28)" fill="#455a64"/>
        <path id="Fill-30-2" data-name="Fill-30" d="M155.734,256.41a1.8,1.8,0,0,1-.157-.336c-.1-.251-.236-.584-.409-1.007-.357-.919-.869-2.227-1.521-3.9-1.31-3.4-3.189-8.352-5.475-14.535s-4.988-13.594-7.816-21.967q-1.059-3.143-2.1-6.473a69.641,69.641,0,0,0-2.244-6.73c-1.8-4.485-3.971-9.037-6.331-13.644l.066.083c-2.655-2.253-5.471-4.615-8.348-6.983-2.251-1.844-4.481-3.662-6.731-5.377s-4.486-3.406-6.675-5.066c-4.368-3.328-8.595-6.518-12.709-9.432-4.1-2.939-8.159-5.484-11.864-8.034a70.182,70.182,0,0,1-9.773-7.805,24,24,0,0,1-3.461-4.245,15.557,15.557,0,0,1-1.892-4.507,18.454,18.454,0,0,1-.1-7.776,27.977,27.977,0,0,1,1.375-4.727c.193-.53.377-.918.487-1.184a2.368,2.368,0,0,1,.188-.394,2.525,2.525,0,0,1-.135.415c-.093.274-.259.669-.435,1.2a30.427,30.427,0,0,0-1.264,4.73,18.411,18.411,0,0,0,.186,7.658,15.354,15.354,0,0,0,1.89,4.4,23.906,23.906,0,0,0,3.439,4.152,70.778,70.778,0,0,0,9.756,7.7c3.7,2.523,7.782,5.061,11.9,7.993,4.131,2.91,8.369,6.1,12.744,9.417l6.68,5.059c2.263,1.723,4.5,3.543,6.749,5.39,2.881,2.371,5.7,4.732,8.353,6.993l.042.035.024.048c2.366,4.628,4.533,9.186,6.335,13.7a70.419,70.419,0,0,1,2.24,6.777c.68,2.216,1.376,4.372,2.074,6.465,2.8,8.375,5.467,15.8,7.7,22,2.249,6.172,4.055,11.138,5.313,14.591l1.431,3.937c.152.431.27.77.36,1.025a1.8,1.8,0,0,1,.108.355" transform="translate(15.152 27.333)" fill="#455a64"/>
        <path id="Fill-32-2" data-name="Fill-32" d="M88.014,117.75l30.522,4.329,15.658,3.973-21.431,7.69Z" transform="translate(19.66 26.301)" fill="#263238"/>
        <path id="Fill-34-2" data-name="Fill-34" d="M61.481,115.944c.027.028-.2.286-.632.733a21.536,21.536,0,0,1-1.957,1.759,30.992,30.992,0,0,1-15.863,6.626,21.928,21.928,0,0,1-2.627.155,3.213,3.213,0,0,1-.966-.066c0-.1,1.367-.146,3.541-.482a35.233,35.233,0,0,0,15.673-6.546c1.767-1.309,2.765-2.249,2.831-2.179" transform="translate(8.81 25.897)" fill="#263238"/>
        <path id="Fill-36" d="M76.445,88.174l-5.883,44.265s19.575-1.274,33.381,3.309,22.288,4.458,22.288,4.458l-2.885-27.541,10.3-22.564,4.533,26.429,21.163,21.792,13.79-3.122L158.84,111.252l-9.924-48.787a.413.413,0,0,1-.011-.056,18.218,18.218,0,0,0-6.245-10.359l-.4-.328-20.783-11.58-6.973.139a109.457,109.457,0,0,0-17.576,1.8,17.8,17.8,0,0,0-9.5,5.1,22.037,22.037,0,0,0-4.849,9.057Z" transform="translate(15.762 8.966)" stroke="rgba(0,0,0,0)" stroke-width="1" fill="url(#linear-gradient-2)"/>
        <path id="Fill-38-2" data-name="Fill-38" d="M132.131,64.273a7.7,7.7,0,0,1-.509,1.422c-.412,1-.943,2.269-1.576,3.795-1.354,3.194-3.26,7.592-5.391,12.438L119.139,94.31c-.689,1.5-1.263,2.755-1.712,3.736a10.754,10.754,0,0,1-.674,1.35,6.219,6.219,0,0,1,.473-1.436c.35-.905.88-2.206,1.549-3.808,1.338-3.2,3.235-7.6,5.367-12.45s4.093-9.219,5.541-12.372c.7-1.5,1.283-2.746,1.74-3.723a7.866,7.866,0,0,1,.708-1.334" transform="translate(26.078 14.356)" fill="#263238"/>
        <path id="Fill-40-2" data-name="Fill-40" d="M81.449,61.083C85.5,72.357,93.276,98.127,97.082,108.055a18.049,18.049,0,0,0,5.64,7.682l42.007,29.7,9.706-12.609-31.469-30.354L106.008,52.211C103.617,45.5,93.7,41.865,87.539,45.45c-4.745,2.761-7.947,10.464-6.09,15.633" transform="translate(18.074 9.838)" stroke="rgba(0,0,0,0)" stroke-width="1" fill="url(#linear-gradient-2)"/>
        <path id="Fill-42-2" data-name="Fill-42" d="M106.144,52.422s.124.292.332.869q.316.9.9,2.556c.779,2.269,1.911,5.558,3.348,9.741,2.866,8.433,6.952,20.46,11.873,34.939l-.06-.1,31.493,30.325.18.173-.152.2c-2.227,2.9-4.588,5.963-6.977,9.069-.935,1.212-1.863,2.421-2.727,3.542l-.165.217-.22-.16-32.23-23.218-7.206-5.2q-.875-.633-1.738-1.254a14.105,14.105,0,0,1-1.67-1.322,16.245,16.245,0,0,1-2.676-3.193A18.463,18.463,0,0,1,96.695,106q-.707-1.822-1.385-3.573-1.332-3.511-2.5-6.749c-3.1-8.623-5.371-15.661-6.92-20.524l-1.74-5.608c-.185-.626-.328-1.111-.433-1.462-.095-.33-.129-.5-.129-.5s.07.163.183.487c.115.348.277.828.483,1.447.427,1.3,1.046,3.17,1.839,5.574,1.609,4.841,3.938,11.858,7.082,20.457q1.176,3.226,2.528,6.73l1.4,3.562a17.96,17.96,0,0,0,1.728,3.524,15.825,15.825,0,0,0,2.611,3.093,13.831,13.831,0,0,0,1.64,1.288l1.741,1.248,7.219,5.18c9.885,7.1,20.775,14.926,32.252,23.172l-.385.056,2.726-3.543c2.392-3.1,4.753-6.171,6.981-9.065l.027.371L122.2,100.774l-.042-.041-.018-.055c-4.842-14.5-8.863-26.553-11.682-35-1.385-4.2-2.475-7.5-3.226-9.783q-.536-1.67-.831-2.579c-.185-.585-.261-.893-.261-.893" transform="translate(18.672 11.709)" fill="#263238"/>
        <path id="Fill-44-2" data-name="Fill-44" d="M101.733,48.128c-.067.069-.77-.671-2.137-1.517a12.139,12.139,0,0,0-11.934-.573c-1.444.711-2.212,1.38-2.274,1.3a6.146,6.146,0,0,1,2.089-1.656,11.546,11.546,0,0,1,12.336.592,6.186,6.186,0,0,1,1.919,1.849" transform="translate(19.073 9.869)" fill="#263238"/>
        <path id="Fill-46-2" data-name="Fill-46" d="M145,98.827c-.017.17-1.987-.037-4.307.54-2.326.549-3.983,1.635-4.076,1.492A9.387,9.387,0,0,1,145,98.827" transform="translate(30.515 22.007)" fill="#263238"/>
        <path id="Fill-48" d="M87.706,72.308a1.644,1.644,0,0,1-.418.112,11.359,11.359,0,0,1-1.165.178,11.483,11.483,0,0,1-3.877-.247,11.2,11.2,0,0,1-3.535-1.612,11,11,0,0,1-.94-.713,1.666,1.666,0,0,1-.313-.3A15.817,15.817,0,0,0,82.3,72.134a16.44,16.44,0,0,0,5.406.174" transform="translate(17.302 15.574)" fill="#fafafa"/>
        <path id="Fill-50" d="M91.3,80.207a19.53,19.53,0,0,0-1.991-1.177,15.171,15.171,0,0,0-5.366-1.372,33.608,33.608,0,0,0-5.583.128l-1.692.155a3.354,3.354,0,0,1-.623.032,3.3,3.3,0,0,1,.613-.118c.4-.061.973-.142,1.687-.227a29.171,29.171,0,0,1,5.618-.193,14.346,14.346,0,0,1,5.418,1.452,9.7,9.7,0,0,1,1.448.907,2.92,2.92,0,0,1,.471.411" transform="translate(16.987 17.282)" fill="#fafafa"/>
        <path id="Fill-52" d="M84.078,66.356S85.206,83.2,86.413,90.974s3.718,15.71,9.287,21.271c5.614,5.6,13.592,8.086,21.368,9.652q-3.767-2.839-7.389-5.856c-3.109-2.59-7.681-5.119-10.185-8.3-4.824-6.129-5.868-13.866-8.352-21.261-2.289-6.816-4.775-13.308-7.064-20.125" transform="translate(18.781 14.822)" opacity="0.3"/>
        <path id="Fill-54" d="M112.328,71.794a3.51,3.51,0,0,1-.892.446,7.171,7.171,0,0,1-2.685.4c-2.316.03-5.386-1.09-8.871-.759a19.014,19.014,0,0,0-8.387,2.689,20.015,20.015,0,0,0-2.207,1.55l-.562.475a1.076,1.076,0,0,1-.206.155,13.791,13.791,0,0,1,2.892-2.315,18.541,18.541,0,0,1,8.454-2.778c3.538-.333,6.62.818,8.892.824a7.493,7.493,0,0,0,2.652-.324c.606-.193.9-.393.92-.363" transform="translate(19.773 15.992)" fill="#fafafa"/>
        <path id="Fill-56-2" data-name="Fill-56" d="M109.718,65.078a1.158,1.158,0,0,1-.208.138l-.619.357c-.537.311-1.335.723-2.337,1.2a42.476,42.476,0,0,1-16.765,3.983c-1.109.028-2.008.019-2.627-.017l-.713-.041a1.029,1.029,0,0,1-.248-.03,1.056,1.056,0,0,1,.25-.015l.713,0c.619.011,1.515,0,2.618-.053a45.664,45.664,0,0,0,16.7-3.969c1.008-.452,1.815-.842,2.364-1.129l.636-.32a1.039,1.039,0,0,1,.231-.1" transform="translate(19.256 14.536)" fill="#fafafa"/>
        <path id="Fill-58" d="M129.35,75a1.475,1.475,0,0,1-.291-.068,5.119,5.119,0,0,1-.812-.28,9.251,9.251,0,0,1-2.633-1.736c-2.048-1.744-3.929-5.017-7.1-7.544a23.756,23.756,0,0,0-9.2-4.542,25.55,25.55,0,0,0-3.089-.549l-.851-.079a1.572,1.572,0,0,1-.3-.042,17.765,17.765,0,0,1,4.274.516,23.2,23.2,0,0,1,9.309,4.522,25.856,25.856,0,0,1,3.989,4.112,33.321,33.321,0,0,0,3.08,3.488,9.675,9.675,0,0,0,2.559,1.774c.67.315,1.08.394,1.069.427" transform="translate(23.47 13.438)" fill="#fafafa"/>
        <path id="Fill-60" d="M127.578,78.258a7.057,7.057,0,0,1-.9-.258,8.318,8.318,0,0,1-2.178-1.321,22.959,22.959,0,0,1-2.64-2.7,25.039,25.039,0,0,0-3.205-3.275,8.651,8.651,0,0,0-4.139-1.779,15.694,15.694,0,0,0-3.735-.071c-1.064.092-1.922.222-2.515.3l-.684.095a1,1,0,0,1-.242.018.982.982,0,0,1,.234-.063l.678-.136c.59-.11,1.446-.264,2.516-.376a15.132,15.132,0,0,1,3.779.024,8.747,8.747,0,0,1,4.246,1.807,24.317,24.317,0,0,1,3.225,3.317,24.247,24.247,0,0,0,2.583,2.716,8.855,8.855,0,0,0,2.112,1.362c.552.22.871.319.864.339" transform="translate(23.978 15.32)" fill="#fafafa"/>
        <path id="Fill-62" d="M140.266,73.733a7.1,7.1,0,0,0-2.392-.239,10.126,10.126,0,0,0-2.547.574c-.931.326-1.918.8-2.965,1.269a16.137,16.137,0,0,1-3.061,1.1,7.5,7.5,0,0,1-2.656.135,4.929,4.929,0,0,1-1.707-.556,2.577,2.577,0,0,1-.536-.383,5.677,5.677,0,0,0,2.261.782,7.674,7.674,0,0,0,2.592-.18,16.748,16.748,0,0,0,3.014-1.1c1.045-.471,2.039-.939,2.99-1.26a9.716,9.716,0,0,1,2.6-.537,5.819,5.819,0,0,1,1.786.168,2.826,2.826,0,0,1,.615.229" transform="translate(27.788 16.379)" fill="#fafafa"/>
        <path id="Fill-64" d="M142.439,78.666a5.323,5.323,0,0,0-2.967-1.041,8.177,8.177,0,0,0-3.379.609,19.25,19.25,0,0,0-3.674,2.137,26.63,26.63,0,0,1-3.647,2.27,9.226,9.226,0,0,1-3.394.911,5.594,5.594,0,0,1-2.34-.347,3.251,3.251,0,0,1-.768-.409,5.887,5.887,0,0,0,3.1.6,9.328,9.328,0,0,0,3.314-.939,28.052,28.052,0,0,0,3.609-2.268,18.746,18.746,0,0,1,3.725-2.146,8.163,8.163,0,0,1,3.465-.575,5.133,5.133,0,0,1,2.269.667,3.07,3.07,0,0,1,.688.532" transform="translate(27.312 17.3)" fill="#fafafa"/>
        <path id="Fill-66" d="M124.574,97.625c2.2-8.814,2.629-18.363,2.942-27.442-.766,3.176-2.713,5.926-3.918,8.961-.577,1.453-1.495,4.077-1.495,4.077l2.436,14.191" transform="translate(27.275 15.676)" opacity="0.4"/>
        <path id="Fill-68" d="M113.852,7.835a4.462,4.462,0,0,1-2.974,3.578c-.887.288-1.851.29-2.723.619a2.038,2.038,0,0,0-1.485,2.092c.146.683.781,1.125,1.3,1.592s.987,1.192.691,1.824c-.328.694-1.325.752-1.842,1.319a1.792,1.792,0,0,0,.122,2.231,7.973,7.973,0,0,0,1.9,1.492,3.124,3.124,0,0,1,1.459,1.861" transform="translate(23.785 1.75)" fill="#263238"/>
        <path id="Fill-70" d="M145.153,23.569c2.368-5,.642-11.245-3.047-15.372s-8.984-6.465-14.3-8c-.765-.221-1.714-.38-2.249.209a1.5,1.5,0,0,0,.136,1.915,4.37,4.37,0,0,0,1.784,1.065,16.632,16.632,0,0,0-6.929-1.89,4.4,4.4,0,0,0-2.439.524,2,2,0,0,0-.959,2.149,1.316,1.316,0,0,0,2.006.684A10.2,10.2,0,0,0,112.578,6.4c-1.382.888-2.635,2.409-2.3,4.019a23.53,23.53,0,0,0,1.209,2.618c.565,1.671-.264,3.449-.9,5.093a15.787,15.787,0,0,0-1.128,8.047,9.333,9.333,0,0,0,4.284,6.7" transform="translate(24.418 0)" fill="#263238"/>
        <path id="Fill-72" d="M113.116,64.536a11.019,11.019,0,0,1-7.722-13.765L115.275,17.3A15.81,15.81,0,0,1,135.049,6.227l.776.28a15.913,15.913,0,0,1,9.946,19.153c-2.033,7.446-4.374,15.648-5.826,19.512-3,8-11.491,6.341-11.491,6.341l-2.086,6a11.019,11.019,0,0,1-13.253,7.026" transform="translate(23.441 1.244)" fill="#ffbe9d"/>
        <path id="Fill-74" d="M125.922,44.269a19.867,19.867,0,0,1-9.4-6.764s.384,6.677,8.661,8.853Z" transform="translate(26.029 8.377)" fill="#eb996e"/>
        <path id="Fill-76" d="M125.626,11.264c-.657-1.446-1.486-4.594-2.606-5.72s-2.935-.756-4.465-.323a5.162,5.162,0,0,0-3.432,3.212c-2.109,5.789-2.372,11.25-3.947,16.944a2.087,2.087,0,0,0-.094,1.153c.3.968,1.358,1.309,2.36,1.456,2.466.36,3.728-1.438,4.891-3.6a26.005,26.005,0,0,0,.855-4,10.89,10.89,0,0,1,6.054-8.931Z" transform="translate(24.802 1.071)" fill="#263238"/>
        <path id="Fill-78" d="M115.82,19.152c-.115-.109-4.929-3.629-6.741,1.927s4.141,6.228,4.2,6.072,2.537-8,2.537-8" transform="translate(24.289 4.01)" fill="#ffbe9d"/>
        <path id="Fill-80" d="M111.988,24.172c-.02-.025-.119.037-.307.058a1.019,1.019,0,0,1-.729-.221,2.525,2.525,0,0,1-.407-2.509,3.382,3.382,0,0,1,.723-1.3,1.173,1.173,0,0,1,.969-.5.518.518,0,0,1,.486.451c.023.18-.048.279-.022.3s.152-.054.18-.3a.647.647,0,0,0-.105-.419.758.758,0,0,0-.488-.316,1.43,1.43,0,0,0-1.292.532,3.443,3.443,0,0,0-.84,1.439,2.642,2.642,0,0,0,.63,2.859,1.09,1.09,0,0,0,.933.141c.217-.081.286-.195.27-.212" transform="translate(24.573 4.33)" fill="#eb996e"/>
        <path id="Fill-82" d="M121.6,12.937c2.735-1.872,5.554-.948,7.437.148s3.482,2.645,5.417,3.645,4.46,1.345,6.187.015a5.922,5.922,0,0,0,1.961-4.274,11.747,11.747,0,0,0-2.815-8.6c-.533-.61-1.346-1.209-2.085-.878-.916.41-.774,1.738-.478,2.7,0,0-9.344-3.451-15.047-1.461s-.576,8.713-.576,8.713" transform="translate(26.689 0.646)" fill="#263238"/>
        <path id="Fill-84" d="M124.086.077c.05-.008.109.4.4,1.068a8.508,8.508,0,0,0,1.78,2.487,13.806,13.806,0,0,0,3.725,2.6,10.891,10.891,0,0,0,2.538.854c.916.2,1.9.344,2.886.62a6.707,6.707,0,0,1,2.7,1.362,5.957,5.957,0,0,1,1.628,2.306,5.2,5.2,0,0,1,.339,2.534,4.87,4.87,0,0,1-3.335,3.963,3.555,3.555,0,0,1-.854.139c-.2,0-.3-.008-.3-.025,0-.046.412-.05,1.094-.294a4.787,4.787,0,0,0,2.3-1.9,4.5,4.5,0,0,0,.691-1.932,4.859,4.859,0,0,0-.355-2.322,5.587,5.587,0,0,0-1.524-2.11,6.311,6.311,0,0,0-2.514-1.254c-.949-.264-1.922-.41-2.859-.623a11.026,11.026,0,0,1-2.629-.915,13.424,13.424,0,0,1-3.777-2.77A7.831,7.831,0,0,1,124.3,1.215a4.157,4.157,0,0,1-.2-.838c-.027-.2-.033-.3-.016-.3" transform="translate(27.715 0.017)" fill="#455a64"/>
        <path id="Fill-86" d="M119.04,1.442c.042-.01.136.41.453,1.1A8.252,8.252,0,0,0,121.41,5.1a11.671,11.671,0,0,0,4.122,2.332,39.7,39.7,0,0,0,5.747,1.335,22.221,22.221,0,0,1,5.76,1.654,3.964,3.964,0,0,1,1.88,1.914,3.723,3.723,0,0,1,.13,2.336,4.606,4.606,0,0,1-1.99,2.629,4.686,4.686,0,0,1-.794.424c-.19.08-.294.107-.3.092-.021-.039.376-.212.985-.671a4.59,4.59,0,0,0,1.764-2.556,3.394,3.394,0,0,0-.166-2.095,3.563,3.563,0,0,0-1.72-1.676,23.023,23.023,0,0,0-5.638-1.572,36.656,36.656,0,0,1-5.8-1.39,11.538,11.538,0,0,1-4.21-2.505,7.745,7.745,0,0,1-1.856-2.731,5.557,5.557,0,0,1-.25-.864c-.034-.2-.044-.311-.028-.314" transform="translate(26.589 0.322)" fill="#455a64"/>
        <path id="Fill-88" d="M134.415,25.451a1.323,1.323,0,0,1-1.644.843,1.266,1.266,0,0,1-.9-1.576,1.324,1.324,0,0,1,1.643-.845,1.269,1.269,0,0,1,.9,1.578" transform="translate(29.445 5.32)" fill="#263238"/>
        <path id="Fill-90" d="M136.79,25.008c-.213.109-.918-.922-2.266-1.387-1.341-.482-2.569-.133-2.657-.349-.046-.1.213-.338.752-.5a3.638,3.638,0,0,1,2.2.077,3.5,3.5,0,0,1,1.731,1.307c.3.462.341.806.241.853" transform="translate(29.454 5.056)" fill="#263238"/>
        <path id="Fill-92" d="M123.534,22.318a1.323,1.323,0,0,1-1.645.843,1.266,1.266,0,0,1-.9-1.576,1.325,1.325,0,0,1,1.644-.844,1.269,1.269,0,0,1,.9,1.577" transform="translate(27.014 4.621)" fill="#263238"/>
        <path id="Fill-94" d="M125.9,21.454c-.212.11-.919-.922-2.266-1.387-1.34-.482-2.568-.133-2.657-.349-.046-.1.212-.338.754-.5a3.633,3.633,0,0,1,2.2.076,3.507,3.507,0,0,1,1.732,1.307c.3.462.341.806.24.853" transform="translate(27.021 4.263)" fill="#263238"/>
        <path id="Fill-96" d="M126.155,32.662a9.384,9.384,0,0,1,2.324.365c.357.084.707.128.845-.086a1.854,1.854,0,0,0,.126-1.1q-.053-1.416-.108-2.971c-.117-4.219-.075-7.64.1-7.644s.4,3.414.52,7.633q.029,1.557.059,2.972a2.1,2.1,0,0,1-.291,1.412.91.91,0,0,1-.739.307,2.463,2.463,0,0,1-.613-.123,9.322,9.322,0,0,1-2.219-.766" transform="translate(28.18 4.741)" fill="#263238"/>
        <path id="Fill-98" d="M122.766,30.211c.223.063-.283,1.525.608,3s2.5,1.852,2.443,2.061c-.011.1-.445.164-1.108-.047a3.85,3.85,0,0,1-2.069-1.637,3.361,3.361,0,0,1-.417-2.481c.158-.63.445-.937.543-.892" transform="translate(27.283 6.747)" fill="#263238"/>
        <path id="Fill-100" d="M127.941,17.214c-.259.32-1.544-.321-3.191-.678-1.638-.393-3.073-.373-3.169-.773-.039-.189.3-.458.941-.633a5.67,5.67,0,0,1,4.846,1.106c.5.436.69.825.573.979" transform="translate(27.157 3.345)" fill="#263238"/>
        <path id="Fill-102" d="M137.415,21.688c-.343.224-1.16-.416-2.271-.818-1.1-.441-2.132-.51-2.238-.906-.043-.187.213-.442.725-.589a3.492,3.492,0,0,1,3.633,1.39c.286.451.306.812.149.924" transform="translate(29.687 4.306)" fill="#263238"/>
        <path id="Fill-104" d="M116.858,118.885a5.318,5.318,0,0,1,3.439,6.072l-7.269,2.877-1.661-7Z" transform="translate(24.876 26.555)" fill="#455a64"/>
        <path id="Fill-106" d="M65.923,121s14.562-1.508,23.725,1.713,20.532,5.615,25.558,4.486a12.8,12.8,0,0,0,6.858-4.274s-14.513-1.741-21.347-3.951c-4.6-1.488-13.681-11.782-30.495-9.3Z" transform="translate(14.726 24.412)" fill="#455a64"/>
        <path id="Fill-108" d="M115.653,123.823a9.873,9.873,0,0,0-2.348-3.52l.132.166a22.332,22.332,0,0,0-4.518.659,7.5,7.5,0,0,0-3.825,2.371,2.013,2.013,0,0,0-.543,1.354,2.469,2.469,0,0,0,1.146,1.573,13.586,13.586,0,0,0,4.574,2.72,4.644,4.644,0,0,0,4.89-1.26,4.421,4.421,0,0,0,.492-4.064" transform="translate(23.353 26.871)" fill="#455a64"/>
        <path id="Fill-110" d="M104.986,123.238a2.1,2.1,0,0,1,.462-.827,4.8,4.8,0,0,1,2.184-1.362,7.963,7.963,0,0,1,3.808-.327,5.6,5.6,0,0,1,3.878,2.514,3.921,3.921,0,0,1-.2,4.507,3.555,3.555,0,0,1-1.669,1.217,4.524,4.524,0,0,1-1.786.213,8.572,8.572,0,0,1-2.505-.625c-.284-.111-.5-.209-.643-.278a.987.987,0,0,1-.215-.116,1.09,1.09,0,0,1,.234.075l.656.237a9.191,9.191,0,0,0,2.485.549,3.7,3.7,0,0,0,3.281-1.4,3.754,3.754,0,0,0,.168-4.266,5.419,5.419,0,0,0-3.721-2.425,7.954,7.954,0,0,0-3.724.272,4.884,4.884,0,0,0-2.167,1.27,4.252,4.252,0,0,0-.528.768" transform="translate(23.451 26.942)" fill="#263238"/>
        <path id="Fill-112" d="M107.848,123.2a5.145,5.145,0,0,0-1.886-1.31,2.844,2.844,0,0,1,1.886,1.31" transform="translate(23.669 27.225)" fill="#fafafa"/>
        <path id="Fill-114" d="M109.73,123.3c-.024.022-.34-.335-.788-.71s-.854-.624-.838-.653a3.853,3.853,0,0,1,1.626,1.363" transform="translate(24.148 27.235)" fill="#fafafa"/>
        <path id="Fill-116" d="M110.648,127.776c-.018,0-.056-.245-.172-.626a5.3,5.3,0,0,0-1.71-2.547c-.307-.252-.522-.379-.513-.4a2.793,2.793,0,0,1,.563.335,4.71,4.71,0,0,1,1.735,2.587,2.794,2.794,0,0,1,.1.647" transform="translate(24.181 27.743)" fill="#fafafa"/>
        <path id="Fill-118" d="M112.3,126.376c-.018,0,.012-.24.023-.624a7.148,7.148,0,0,0-.521-2.93c-.143-.356-.253-.569-.239-.576s.042.045.1.137a3.9,3.9,0,0,1,.213.409,5.961,5.961,0,0,1,.451,1.448,6.032,6.032,0,0,1,.078,1.516,3.97,3.97,0,0,1-.061.458.472.472,0,0,1-.043.163" transform="translate(24.919 27.305)" fill="#fafafa"/>
        <path id="Fill-120" d="M113.257,121.953a12.881,12.881,0,0,0-5.941,4.219,3.672,3.672,0,0,1,.6-.914,9.831,9.831,0,0,1,4.274-3.035,3.7,3.7,0,0,1,1.062-.27" transform="translate(23.971 27.239)" fill="#263238"/>
        <path id="Fill-122" d="M109.745,121a6.554,6.554,0,0,0-2.776,5.154,2.279,2.279,0,0,1-.048-.908,5.458,5.458,0,0,1,2.039-3.786,2.288,2.288,0,0,1,.784-.46" transform="translate(23.881 27.026)" fill="#263238"/>
        <path id="Fill-124" d="M113.247,127.958c-.039,0-.065-.352-.279-.87a4.9,4.9,0,0,0-1.28-1.74c-1.309-1.1-2.64-1.66-2.587-1.748a3.539,3.539,0,0,1,.854.357,8.533,8.533,0,0,1,1.883,1.223,4.421,4.421,0,0,1,1.278,1.852,1.834,1.834,0,0,1,.131.925" transform="translate(24.37 27.607)" fill="#263238"/>
        <path id="Fill-126" d="M93.738,121.451a7.609,7.609,0,0,1-1.431-.267c-.913-.2-2.233-.492-3.874-.806A90.011,90.011,0,0,0,75.5,118.863a23.914,23.914,0,0,0-7.064.577,14.674,14.674,0,0,0-5.15,2.547,19.965,19.965,0,0,0-3.659,3.9,5.213,5.213,0,0,1,.71-1.278,14.092,14.092,0,0,1,2.7-2.939,14.513,14.513,0,0,1,5.261-2.733,23.449,23.449,0,0,1,7.222-.64,75.425,75.425,0,0,1,12.988,1.687c1.637.366,2.95.714,3.848.984a6.828,6.828,0,0,1,1.377.477" transform="translate(13.32 26.417)" fill="#263238"/>
        <g id="Fill-128-Clipped" transform="translate(0 130.187)">
          <path id="Fill-128" d="M0,3.729a6.126,6.126,0,0,1,.74-.578A13.818,13.818,0,0,1,3.1,1.856,15.572,15.572,0,0,1,12.866,1.1a14.579,14.579,0,0,1,6.083,3.14,31.5,31.5,0,0,1,5.113,5.965,83.675,83.675,0,0,0,5.148,6.9,61.738,61.738,0,0,0,6.468,6.575c4.764,4.141,9.909,7.5,15.115,9.191a23.871,23.871,0,0,0,7.6,1.263A11.948,11.948,0,0,0,64.8,32.552a15.1,15.1,0,0,0,4-3.8c1-1.306,1.791-2.492,2.43-3.464q.929-1.408,1.475-2.239a5.869,5.869,0,0,1,.545-.762,5.868,5.868,0,0,1-.449.824q-.514.849-1.387,2.3c-.611.991-1.375,2.2-2.364,3.535a15.213,15.213,0,0,1-4.042,3.951A12.3,12.3,0,0,1,58.4,34.6a24.134,24.134,0,0,1-7.763-1.237c-5.311-1.7-10.519-5.082-15.325-9.26a61.314,61.314,0,0,1-6.52-6.642,82.623,82.623,0,0,1-5.15-6.959A31.409,31.409,0,0,0,18.645,4.6a14.251,14.251,0,0,0-5.877-3.11,15.639,15.639,0,0,0-9.585.571A21.908,21.908,0,0,0,0,3.729" transform="translate(0.001 -0.648)" fill="#263238"/>
        </g>
        <path id="Fill-131" d="M25.144,101.132s-.27.021-.758.038-1.195.062-2.062.16A26.868,26.868,0,0,0,9.73,106.182c-.709.509-1.266.944-1.636,1.264s-.589.481-.589.481a20.688,20.688,0,0,1,2.179-1.809,26,26,0,0,1,12.631-4.867,20.917,20.917,0,0,1,2.829-.119" transform="translate(1.677 22.587)" fill="#fafafa"/>
        <path id="Fill-133" d="M39.322,109.686s-.282.048-.791.113-1.245.179-2.145.36a29.208,29.208,0,0,0-12.8,6.144c-.705.587-1.257,1.085-1.622,1.446s-.582.547-.582.547a22.711,22.711,0,0,1,2.154-2.054,28.225,28.225,0,0,1,12.836-6.16,22.807,22.807,0,0,1,2.95-.4" transform="translate(4.777 24.5)" fill="#fafafa"/>
        <path id="Fill-135" d="M35.657,133.13s-.073-.291-.149-.827a11.845,11.845,0,0,1-.079-2.288,17.012,17.012,0,0,1,2.212-7.173,35.356,35.356,0,0,1,4.467-6.079c1.284-1.444,2.118-2.3,2.118-2.3s-.189.23-.548.634l-1.509,1.718A36.836,36.836,0,0,0,37.74,122.9a17.306,17.306,0,0,0-2.232,7.122,12.823,12.823,0,0,0,.043,2.279c.022.269.067.473.082.614s.024.217.024.217" transform="translate(7.91 25.567)" fill="#fafafa"/>
        <path id="Fill-137" d="M51.2,121.918a5.326,5.326,0,0,1-.282-.828,8.976,8.976,0,0,1-.079-4.191,5.377,5.377,0,0,1,.251-.836c.019,0-.074.324-.173.853A10.62,10.62,0,0,0,50.747,119,10.355,10.355,0,0,0,51,121.071c.117.524.223.84.2.847" transform="translate(11.311 25.924)" fill="#fafafa"/>
        <path id="Fill-139" d="M55.171,133.8a13.159,13.159,0,0,1-1.727-1.285,16.915,16.915,0,0,1-5.347-8.745,13.155,13.155,0,0,1-.356-2.121s.044.2.1.568.164.893.328,1.534a17.544,17.544,0,0,0,5.324,8.705c.5.439.915.777,1.217.992s.458.351.458.351" transform="translate(10.665 27.171)" fill="#fafafa"/>
        <path id="Fill-141" d="M67.22,120.616s-.552-.248-1.4-.738a26.872,26.872,0,0,1-5.964-4.723c-.67-.71-1.038-1.192-1.038-1.192s.112.1.3.3l.8.832a30.625,30.625,0,0,0,5.948,4.711l.994.585c.237.135.363.22.363.22" transform="translate(13.14 25.455)" fill="#fafafa"/>
        <path id="Fill-143" d="M74.387,120.185s-.017-.153-.026-.426c-.017-.391-.033-.776-.05-1.157-.048-.976-.151-2.324-.35-3.8s-.458-2.805-.67-3.761c-.085-.372-.171-.746-.259-1.128-.063-.268-.086-.417-.086-.417s.053.142.129.4.178.646.294,1.123a37.56,37.56,0,0,1,1.022,7.576c.014.491.018.887.014,1.16s-.018.427-.018.427" transform="translate(16.295 24.457)" fill="#fafafa"/>
        <path id="Fill-145" d="M85.413,112.24a1.909,1.909,0,0,1-.013.351q-.047.5-.09.953c-.091.8-.251,1.912-.5,3.121s-.54,2.291-.777,3.066q-.14.435-.3.91a2.121,2.121,0,0,1-.127.328,2.21,2.21,0,0,1,.086-.34c.09-.322.178-.628.262-.921.216-.778.493-1.86.744-3.065s.422-2.308.532-3.109q.06-.453.126-.948a2.191,2.191,0,0,1,.056-.346" transform="translate(18.676 25.07)" fill="#fafafa"/>
        <path id="Fill-147" d="M92.545,120.119a14.372,14.372,0,0,1,.307-1.758,14.7,14.7,0,0,1,.418-1.734,28.129,28.129,0,0,1-.725,3.491" transform="translate(20.671 26.05)" fill="#fafafa"/>
        <path id="Fill-149" d="M104.878,124.488c-.018,0,.042-.278.088-.727s.084-1.072.1-1.762c0-.481.006-.995.01-1.767,0-.16,0-.34,0-.536a.83.83,0,0,1,.01-.2,3.89,3.89,0,0,1,.071.732c.022.453.04,1.079.023,1.771a14.208,14.208,0,0,1-.132,1.768,4.016,4.016,0,0,1-.168.718" transform="translate(23.426 26.692)" fill="#fafafa"/>
        <path id="Fill-151" d="M114.8,128.1c-1.165-4.688-5.975-7.7-10.747-8.456s-9.62.234-14.414.838-9.9.768-14.192-1.457a16.5,16.5,0,0,0-2,8.231l2.522.056c.521,3.636,3.85,6.413,7.437,7.2s5.951.81,9.317-.661c3.527-1.543,8.1-3.884,11.563-5.1s7.31-1.822,10.8-.673" transform="translate(16.405 26.586)" fill="#455a64"/>
        <path id="Fill-153" d="M77.473,119.938a8.188,8.188,0,0,1-.426,1.013,20.7,20.7,0,0,0-.887,2.485,16.909,16.909,0,0,0-.524,2.581,10.477,10.477,0,0,1-.118,1.091,3.62,3.62,0,0,1-.04-1.106,12.6,12.6,0,0,1,.467-2.629,14.532,14.532,0,0,1,.958-2.488,4.1,4.1,0,0,1,.571-.947" transform="translate(16.857 26.79)" fill="#263238"/>
        <path id="Fill-155" d="M76.142,124.156a6.667,6.667,0,0,1-1.332-.122,6.728,6.728,0,0,1-1.327-.171,4.585,4.585,0,0,1,2.659.294" transform="translate(16.415 27.647)" fill="#263238"/>
        <path id="Fill-157" d="M76.527,121.87c-.043.05-.5-.3-1.152-.531s-1.227-.25-1.228-.317a2.536,2.536,0,0,1,2.38.848" transform="translate(16.563 27.018)" fill="#263238"/>
        <path id="Fill-159" d="M81.237,120.72s.256-.007.745,0,1.211.023,2.142,0a42.249,42.249,0,0,0,7.86-.8,33.388,33.388,0,0,1,11.809-.329,15.992,15.992,0,0,1,6.526,2.619,11.9,11.9,0,0,1,4.479,6.083l.071.237-.229-.111a9.178,9.178,0,0,0-3.261-.881,20.772,20.772,0,0,0-7.988,1.428,68.029,68.029,0,0,0-7.07,2.883c-1.106.514-2.183,1.02-3.244,1.482a18.992,18.992,0,0,1-3.167,1.155,15.794,15.794,0,0,1-6.024.237,11.163,11.163,0,0,1-4.642-1.763,8.934,8.934,0,0,1-2.6-2.707,8.3,8.3,0,0,1-.954-2.175,7.134,7.134,0,0,1-.185-.807,10.106,10.106,0,0,0,1.213,2.939,8.9,8.9,0,0,0,2.595,2.646,11.072,11.072,0,0,0,4.595,1.713,15.74,15.74,0,0,0,5.957-.263A18.916,18.916,0,0,0,93,133.151c1.056-.464,2.129-.97,3.235-1.488a67.432,67.432,0,0,1,7.087-2.9,20.957,20.957,0,0,1,8.076-1.444,9.418,9.418,0,0,1,3.342.9l-.158.127a11.721,11.721,0,0,0-4.389-5.959,15.826,15.826,0,0,0-6.434-2.6,33.483,33.483,0,0,0-11.746.281,41.027,41.027,0,0,1-7.886.735c-1.866,0-2.888-.087-2.888-.087" transform="translate(16.867 26.627)" fill="#263238"/>
        <path id="Fill-161" d="M80.215,133.523a2.368,2.368,0,0,1-.186-.489,12.488,12.488,0,0,1-.364-1.382,17.144,17.144,0,0,1,.651-9.307,12.727,12.727,0,0,1,.552-1.318,2.383,2.383,0,0,1,.253-.46c.038.017-.281.691-.656,1.829a18.859,18.859,0,0,0-.645,9.225c.212,1.179.433,1.89.394,1.9" transform="translate(17.715 26.93)" fill="#fafafa"/>
        <path id="Fill-163" d="M87.669,125.976a5.128,5.128,0,0,1,.17.907c.092.559.249,1.326.467,2.162.446,1.672.877,3.016.808,3.038a3.7,3.7,0,0,1-.361-.851c-.194-.536-.445-1.285-.665-2.13a14.45,14.45,0,0,1-.407-2.2,3.077,3.077,0,0,1-.013-.927" transform="translate(19.578 28.139)" fill="#fafafa"/>
        <path id="Fill-165" d="M86.6,122.992c.066,0,.036.792.117,1.751s.236,1.73.172,1.747a6.23,6.23,0,0,1-.29-3.5" transform="translate(19.316 27.472)" fill="#fafafa"/>
        <path id="Fill-167" d="M88.6,119.918c.061.028-.227.719-.389,1.619s-.148,1.647-.214,1.652a4.582,4.582,0,0,1,.6-3.27" transform="translate(19.634 26.785)" fill="#fafafa"/>
        <path id="Fill-169" d="M94.685,122.126a2.934,2.934,0,0,1-.658-2.715c.066.006.017.641.2,1.387s.511,1.291.455,1.327" transform="translate(20.978 26.672)" fill="#fafafa"/>
        <path id="Fill-171" d="M99.787,127.766a4.016,4.016,0,0,1-.621-.847,16.358,16.358,0,0,1-1.985-4.651A4.063,4.063,0,0,1,97,121.233a6.252,6.252,0,0,1,.336.992c.192.613.481,1.456.866,2.356s.793,1.693,1.1,2.257a6.421,6.421,0,0,1,.484.927" transform="translate(21.665 27.079)" fill="#fafafa"/>
        <path id="Fill-173" d="M100.725,120.188c.033.054-.155.23-.334.478s-.294.478-.356.462-.034-.31.175-.595.486-.4.515-.346" transform="translate(22.339 26.843)" fill="#fafafa"/>
        <path id="Fill-175" d="M114.56,127.219s-.11-.092-.31-.273a8.889,8.889,0,0,0-.94-.717,9.9,9.9,0,0,0-4.062-1.437,14.847,14.847,0,0,0-6.355.694,69.93,69.93,0,0,0-7.3,3.018A23.718,23.718,0,0,1,88,130.688a18.446,18.446,0,0,1-6.422-.559,17.867,17.867,0,0,1-4.046-1.611c-.452-.246-.793-.455-1.017-.607s-.344-.229-.344-.229.125.068.356.209.572.347,1.027.588a18.777,18.777,0,0,0,10.436,2.105,23.768,23.768,0,0,0,7.552-2.185,68.483,68.483,0,0,1,7.32-3.014,14.877,14.877,0,0,1,6.4-.674,9.8,9.8,0,0,1,4.074,1.481,6.714,6.714,0,0,1,1.226,1.025" transform="translate(17.015 27.832)" fill="#fafafa"/>
        <path id="Fill-177" d="M96.621,122.6s-.267.125-.76.33-1.211.491-2.115.8a22.325,22.325,0,0,1-7.338,1.216,27.391,27.391,0,0,1-7.345-1.237c-1.833-.536-2.945-.932-2.945-.932s.286.073.8.226l2.17.63a28.322,28.322,0,0,0,7.324,1.2,22.9,22.9,0,0,0,7.312-1.178c.9-.3,1.631-.562,2.123-.766s.777-.291.777-.291" transform="translate(17.003 27.384)" fill="#fafafa"/>
        <path id="Fill-179" d="M107.283,122.035s-.093-.055-.263-.168-.425-.272-.761-.46a10.789,10.789,0,0,0-3.081-1.062,16.984,16.984,0,0,0-4.832-.155c-1.82.176-3.793.59-5.87.977a31.813,31.813,0,0,1-10.784.295,44.08,44.08,0,0,1-4.411-.8s.421.076,1.182.217,1.866.333,3.238.509a32.372,32.372,0,0,0,10.755-.328c2.075-.387,4.051-.8,5.879-.97a16.963,16.963,0,0,1,4.859.18,10.514,10.514,0,0,1,3.086,1.1,7.109,7.109,0,0,1,1,.666" transform="translate(17.263 26.802)" fill="#fafafa"/>
        <path id="Fill-181" d="M112.225,127.486a18.615,18.615,0,0,0-2.959-3.242,12.277,12.277,0,0,0-9.858-2.578,15.708,15.708,0,0,0-5.358,2.149c-1.56.908-2.953,1.787-4.21,2.376a11.307,11.307,0,0,1-3.113,1.039,5.182,5.182,0,0,1-.888.086c-.2.006-.31,0-.312-.02a15.864,15.864,0,0,0,4.136-1.458c1.21-.621,2.564-1.526,4.126-2.468a15.626,15.626,0,0,1,5.525-2.257,12.616,12.616,0,0,1,5.962.421,12.238,12.238,0,0,1,4.246,2.406,11.643,11.643,0,0,1,2.156,2.475,3.675,3.675,0,0,1,.548,1.07" transform="translate(19.104 27.013)" fill="#263238"/>
        <path id="Fill-183" d="M97.553,121.8a18.059,18.059,0,0,1-6.568,1.457,18.045,18.045,0,0,1-6.708-.508c.023-.17,3,.224,6.668-.05,3.668-.25,6.562-1.066,6.608-.9" transform="translate(18.826 27.201)" fill="#263238"/>
        <path id="Fill-185" d="M110.647,122.633l-1.213-.515c-.8-.333-1.975-.818-3.518-1.376a44.462,44.462,0,0,0-13.544-2.814,29.232,29.232,0,0,0-9.464,1.227,22.646,22.646,0,0,0-9.391,5.505c-2.8,2.679-5.145,6.073-8.371,8.833a13.917,13.917,0,0,1-5.656,3.007,12.28,12.28,0,0,1-6.566-.39,17.914,17.914,0,0,1-5.775-3.227,28.441,28.441,0,0,1-4.427-4.677c-2.583-3.352-4.636-6.886-6.989-9.97a49.221,49.221,0,0,0-7.458-8.066,30.311,30.311,0,0,0-8.112-5.032,22.954,22.954,0,0,0-13.6-1.359,19,19,0,0,0-3.573,1.2l-1.178.591,1.168-.612a18.623,18.623,0,0,1,3.573-1.222,22.935,22.935,0,0,1,13.643,1.326,30.4,30.4,0,0,1,8.141,5.035,49.349,49.349,0,0,1,7.481,8.074c2.36,3.089,4.416,6.623,6.992,9.964a28.492,28.492,0,0,0,4.411,4.66A17.84,17.84,0,0,0,52.957,136a12.176,12.176,0,0,0,6.507.388,13.821,13.821,0,0,0,5.611-2.981c3.211-2.745,5.559-6.136,8.369-8.824a22.721,22.721,0,0,1,9.436-5.52,29.262,29.262,0,0,1,9.493-1.216,44.211,44.211,0,0,1,13.557,2.85c3.079,1.14,4.716,1.933,4.716,1.933" transform="translate(0.405 23.059)" fill="#fafafa"/>
        <path id="Fill-187" d="M53.7,126.33a6.864,6.864,0,0,1-1.7-.064,10.492,10.492,0,0,1-4.269-1.767,19.672,19.672,0,0,1-4.763-4.95c-1.511-2.108-3.028-4.528-5-6.784A41.824,41.824,0,0,0,26.059,103.3a44.392,44.392,0,0,0-4.213-1.939l-1.591-.6s.577.185,1.607.563a42.16,42.16,0,0,1,4.234,1.91,41.328,41.328,0,0,1,11.963,9.468,83.432,83.432,0,0,1,4.994,6.8,19.76,19.76,0,0,0,4.723,4.944,10.592,10.592,0,0,0,4.231,1.79,8.713,8.713,0,0,0,1.255.105c.287,0,.439,0,.439,0" transform="translate(4.525 22.505)" fill="#fafafa"/>
        <path id="Fill-189" d="M94.456,115.111s-.114-.061-.327-.184-.519-.318-.932-.535A31.812,31.812,0,0,0,76.9,110.411,31.839,31.839,0,0,0,60.886,115.4c-.4.243-.689.46-.9.592s-.315.2-.315.2.41-.314,1.188-.833a29.893,29.893,0,0,1,3.442-1.949,30.951,30.951,0,0,1,25.358-.792,29.935,29.935,0,0,1,3.557,1.732c.808.469,1.237.757,1.237.757" transform="translate(13.33 24.634)" fill="#fafafa"/>
        <path id="Fill-191" d="M71.133,119.978s-.055-.149-.135-.423-.2-.668-.36-1.152a27.518,27.518,0,0,0-3.543-7.1c-.291-.418-.532-.754-.7-.98s-.257-.363-.257-.363a16.482,16.482,0,0,1,1.027,1.3,24.839,24.839,0,0,1,3.553,7.125,16.231,16.231,0,0,1,.419,1.6" transform="translate(14.773 24.56)" fill="#fafafa"/>
        <path id="Fill-193" d="M79.86,109.975s.073.6.086,1.568a24.915,24.915,0,0,1-1.073,7.486c-.285.929-.523,1.481-.523,1.481s.034-.148.117-.4c.112-.374.221-.738.329-1.1a28,28,0,0,0,1.071-7.464c0-.378-.006-.758-.009-1.146-.006-.272,0-.422,0-.422" transform="translate(17.502 24.564)" fill="#fafafa"/>
        <path id="Fill-195" d="M60.581,126.206a13.613,13.613,0,0,1-1.258-.8,20.72,20.72,0,0,1-5.051-5.089,13.835,13.835,0,0,1-.79-1.265s.089.113.233.325.353.521.622.893a23.109,23.109,0,0,0,5.033,5.071c.37.272.675.487.888.629s.324.235.324.235" transform="translate(11.947 26.592)" fill="#fafafa"/>
        <path id="Fill-197" d="M45.786,123.571a7.908,7.908,0,0,1-.26-1.118,12.365,12.365,0,0,1,.337-5.5,8.041,8.041,0,0,1,.394-1.078,1.486,1.486,0,0,1-.083.3c-.061.187-.143.461-.235.8a13.654,13.654,0,0,0-.335,5.468c.048.35.1.632.136.826a1.678,1.678,0,0,1,.046.3" transform="translate(10.133 25.882)" fill="#fafafa"/>
        <path id="Fill-199" d="M46.143,135.888a18.179,18.179,0,0,1-.8-1.746,25.552,25.552,0,0,1-1.82-9.048,18.454,18.454,0,0,1,.06-1.919s.01.183.005.515,0,.811.015,1.4a27.579,27.579,0,0,0,1.813,9.021c.211.553.394,1,.528,1.3s.195.477.195.477" transform="translate(9.723 27.513)" fill="#fafafa"/>
        <path id="Fill-201" d="M56.012,115.236a6.809,6.809,0,0,0,.2.839,7.25,7.25,0,0,0,.4.767,1.784,1.784,0,0,1-.594-1.606" transform="translate(12.505 25.74)" fill="#fafafa"/>
        <path id="Fill-203" d="M41.55,111.946s-.247.144-.7.385-1.1.6-1.889,1.079a37.922,37.922,0,0,0-10.6,9.553c-.554.733-.985,1.338-1.268,1.768s-.456.656-.456.656a28.916,28.916,0,0,1,1.661-2.471,36.289,36.289,0,0,1,10.619-9.574,28.357,28.357,0,0,1,2.629-1.4" transform="translate(5.952 25.005)" fill="#fafafa"/>
        <path id="Fill-205" d="M31.135,103.123s-.239.066-.673.165-1.06.251-1.828.462a37.993,37.993,0,0,0-11.248,5.188c-.659.445-1.183.821-1.538,1.09s-.562.4-.562.4.747-.648,2.055-1.561a35.917,35.917,0,0,1,11.272-5.2c1.545-.4,2.522-.552,2.522-.552" transform="translate(3.416 23.034)" fill="#fafafa"/>
        <path id="Fill-207" d="M100.113,118.623a2.128,2.128,0,0,1-.1.669,2.074,2.074,0,0,1-.213.641,2.123,2.123,0,0,1,.1-.668,2.09,2.09,0,0,1,.212-.642" transform="translate(22.29 26.496)" fill="#fafafa"/>
        <path id="Fill-209" d="M141.222,118.231s4.86,1.007,6.933,1.467c.672.15,1.365.048,2.044.163a25.382,25.382,0,0,0,8.986-.161c2.063-.757,2.147,1.873-.075,3a11.088,11.088,0,0,1-3.583,1.254l5.345,4.3a1.406,1.406,0,0,1,.511.9l1.368,9.473a1.617,1.617,0,0,1-1.047,1.871.8.8,0,0,1-1.023-.371l.15,1.275a1.672,1.672,0,0,1-3.293.557c0-.026-.01-.053-.013-.08l-1.879,1.062s-1.248,1.3-2.594-.5c-1.111-1.486-4.444-7.383-4.444-7.383s-14.193-5.98-13.966-8.368Z" transform="translate(30.075 26.409)" fill="#ffbe9d"/>
        <path id="Fill-211" d="M154.383,140.113a14.342,14.342,0,0,1-.382-2.291c-.22-1.4-.624-3.369-.905-5.519-.2-1.048-.443-2.107-.679-2.956a1.693,1.693,0,0,0-.762-.876l-.991-.63a9.574,9.574,0,0,1-1.9-1.359,9.762,9.762,0,0,1,2.1,1.018c.332.185.673.374,1.028.57a2.153,2.153,0,0,1,1,1.085,26.974,26.974,0,0,1,.75,3.049c.29,2.19.624,4.119.747,5.571a7.36,7.36,0,0,1-.011,2.338" transform="translate(33.23 28.25)" fill="#eb996e"/>
        <path id="Fill-213" d="M157.011,138.507c-.219.04-.573-3.4-1.447-7.509a6.532,6.532,0,0,0-.911-2.666,16.146,16.146,0,0,0-1.74-1.641,9.013,9.013,0,0,0-1.316-.925c-.33-.18-.535-.229-.53-.274s.232-.056.618.073a6.222,6.222,0,0,1,1.467.809,13.043,13.043,0,0,1,1.884,1.611,6.43,6.43,0,0,1,1.077,2.893,42.512,42.512,0,0,1,.81,5.38,10.247,10.247,0,0,1,.089,2.247" transform="translate(33.744 28.025)" fill="#eb996e"/>
        <path id="Fill-215" d="M146.442,128.8a7.544,7.544,0,0,1,1.857.877l.9.5a3.247,3.247,0,0,1,1.022.743,3.126,3.126,0,0,1,.6,1.256c.136.439.275.886.417,1.346a43.607,43.607,0,0,1,1.776,6.764,44.079,44.079,0,0,1-2.307-6.584l-.4-1.344a2.794,2.794,0,0,0-.477-1.108,3,3,0,0,0-.861-.673l-.87-.559a7.436,7.436,0,0,1-1.653-1.217" transform="translate(32.711 28.767)" fill="#eb996e"/>
        <path id="Fill-217" d="M146.747,120.44c.073-.219,2.076.565,4.318,1.873,2.266,1.281,3.906,2.658,3.79,2.794-.086.1-1.822-1.036-4.071-2.308l-2.864-1.642a6.322,6.322,0,0,1-1.173-.717" transform="translate(32.779 26.894)" fill="#eb996e"/>
      </g>
    </g>
  </g>
</svg>
