<svg width="76" height="52" viewBox="0 0 76 52" fill="none" xmlns="http://www.w3.org/2000/svg">
<path d="M66.097 0H9.197C4.126 0 0 4.126 0 9.197V41.919C0 46.99 4.126 51.116 9.197 51.116H66.097C71.168 51.116 75.294 46.99 75.294 41.919V9.198C75.295 4.126 71.169 0 66.097 0ZM61.603 6L37.647 21.434L13.691 6H61.603ZM66.097 45.117H9.197C7.434 45.117 6 43.682 6 41.92V9.368L35.796 28.528C35.836 28.553 35.879 28.57 35.92 28.593C35.963 28.617 36.007 28.64 36.051 28.662C36.282 28.781 36.52 28.877 36.763 28.94C36.788 28.947 36.813 28.95 36.838 28.956C37.105 29.019 37.375 29.058 37.645 29.058C37.646 29.058 37.647 29.058 37.647 29.058C37.649 29.058 37.65 29.058 37.651 29.058C37.921 29.058 38.191 29.02 38.458 28.956C38.483 28.95 38.508 28.947 38.533 28.94C38.776 28.877 39.013 28.781 39.245 28.662C39.289 28.64 39.333 28.617 39.376 28.593C39.417 28.57 39.46 28.553 39.5 28.528L69.296 9.368V41.919C69.295 43.682 67.86 45.117 66.097 45.117Z" fill="url(#paint0_linear_303_4)"/>
<defs>
<linearGradient id="paint0_linear_303_4" x1="93.5904" y1="6.28727" x2="22.6031" y2="47.8069" gradientUnits="userSpaceOnUse">
<stop stop-color="#EE9F70"/>
<stop offset="0.477" stop-color="#D941AB"/>
<stop offset="1" stop-color="#102FC9"/>
</linearGradient>
</defs>
</svg>
