<svg width="38" height="38" viewBox="0 0 38 38" fill="none" xmlns="http://www.w3.org/2000/svg">
<path d="M38 19C38 29.4934 29.4934 38 19 38C8.50659 38 0 29.4934 0 19C0 8.50659 8.50659 0 19 0C29.4934 0 38 8.50659 38 19ZM0.950001 19C0.950001 28.9687 9.03126 37.05 19 37.05C28.9687 37.05 37.05 28.9687 37.05 19C37.05 9.03126 28.9687 0.950001 19 0.950001C9.03126 0.950001 0.950001 9.03126 0.950001 19Z" fill="white"/>
<path d="M24.6667 19.7775V24.4441C24.6667 24.8567 24.5028 25.2523 24.2111 25.5441C23.9193 25.8358 23.5237 25.9997 23.1111 25.9997H14.5556C14.143 25.9997 13.7473 25.8358 13.4556 25.5441C13.1639 25.2523 13 24.8567 13 24.4441V15.8886C13 15.476 13.1639 15.0803 13.4556 14.7886C13.7473 14.4969 14.143 14.333 14.5556 14.333H19.2222" stroke="white" stroke-linecap="round" stroke-linejoin="round"/>
<path d="M22.3335 12H27.0002V16.6667" stroke="white" stroke-linecap="round" stroke-linejoin="round"/>
<path d="M18.4443 20.5556L26.9999 12" stroke="white" stroke-linecap="round" stroke-linejoin="round"/>
</svg>
