<svg xmlns="http://www.w3.org/2000/svg" xmlns:xlink="http://www.w3.org/1999/xlink" width="139.778" height="49.262" viewBox="0 0 139.778 49.262">
  <defs>
    <linearGradient id="linear-gradient" x1="0.854" x2="0.282" y2="0.893" gradientUnits="objectBoundingBox">
      <stop offset="0" stop-color="#ee9f70"/>
      <stop offset="0.546" stop-color="#d941ab"/>
      <stop offset="1" stop-color="#102fc9"/>
    </linearGradient>
    <linearGradient id="linear-gradient-3" x1="1.243" y1="0.123" x2="0.15" y2="0.557" gradientUnits="objectBoundingBox">
      <stop offset="0" stop-color="#ee9f70"/>
      <stop offset="0.477" stop-color="#d941ab"/>
      <stop offset="1" stop-color="#102fc9"/>
    </linearGradient>
  </defs>
  <g id="Group_1890" data-name="Group 1890" transform="translate(-289 -37)">
    <g id="logo" transform="translate(62.297 -164)">
      <circle id="Ellipse_56" data-name="Ellipse 56" cx="6.5" cy="6.5" r="6.5" transform="translate(257 201)" fill="url(#linear-gradient)"/>
      <path id="Path_3853" data-name="Path 3853" d="M60.5-37.387,49.9-11.322q-2.689,6.574-6.392,9.579a14.045,14.045,0,0,1-9.147,3,12.962,12.962,0,0,1-8.882-3.171,9.978,9.978,0,0,1-3.6-7.786,24.442,24.442,0,0,1,2.158-8.732l3.553-8.766q2.025-4.98,2.025-6.74a3.5,3.5,0,0,0-1.395-2.806,5.162,5.162,0,0,0-3.387-1.146,8.026,8.026,0,0,0-5.943,2.872A9.067,9.067,0,0,0,16.2-28.687a5.026,5.026,0,0,0,.93,3.221,7.629,7.629,0,0,0,3.254,2.059q2.457.963,2.457,3.121a3.951,3.951,0,0,1-1.428,3.1,5.212,5.212,0,0,1-3.553,1.245,9.111,9.111,0,0,1-7.188-3.5A12.674,12.674,0,0,1,7.7-27.924a17.306,17.306,0,0,1,5.429-12.65,17.423,17.423,0,0,1,12.7-5.412,13.246,13.246,0,0,1,9.147,3.237A10.45,10.45,0,0,1,38.615-34.6a20.044,20.044,0,0,1-1.76,7.4L31.809-14.742a12.194,12.194,0,0,0-1.1,4.283,3.546,3.546,0,0,0,1.112,2.706A4.069,4.069,0,0,0,34.73-6.707a5.07,5.07,0,0,0,3.8-1.561,18.142,18.142,0,0,0,3.138-5.611L52.594-40.74a8.229,8.229,0,0,1,2.391-3.752,8.056,8.056,0,0,1,4.283-.83h7.172q4.582,0,4.582,3.121a4.262,4.262,0,0,1-1.594,3.569,7.188,7.188,0,0,1-4.516,1.245Z" transform="translate(219 249)" fill="url(#linear-gradient)"/>
    </g>
    <path id="Path_3900" data-name="Path 3900" d="M7.074.324A6.152,6.152,0,0,1,4.023-.369,4.559,4.559,0,0,1,2.151-2.322a6.4,6.4,0,0,1-.639-2.934V-13.14h2.16v8.064a3.859,3.859,0,0,0,.4,1.782A2.807,2.807,0,0,0,5.22-2.1a3.748,3.748,0,0,0,1.854.423,3.762,3.762,0,0,0,1.845-.414,2.767,2.767,0,0,0,1.143-1.188,3.9,3.9,0,0,0,.4-1.8V-13.14h2.16v7.884a6.481,6.481,0,0,1-.63,2.934A4.5,4.5,0,0,1,10.125-.369,6.152,6.152,0,0,1,7.074.324ZM15.93,0V-13.14h2.16V0ZM30.96.324a6.152,6.152,0,0,1-3.051-.693,4.559,4.559,0,0,1-1.872-1.953A6.4,6.4,0,0,1,25.4-5.256V-13.14h2.16v8.064a3.859,3.859,0,0,0,.4,1.782,2.807,2.807,0,0,0,1.152,1.2,3.748,3.748,0,0,0,1.854.423,3.762,3.762,0,0,0,1.845-.414,2.767,2.767,0,0,0,1.143-1.188,3.9,3.9,0,0,0,.4-1.8V-13.14H36.5v7.884a6.481,6.481,0,0,1-.63,2.934A4.5,4.5,0,0,1,34.011-.369,6.152,6.152,0,0,1,30.96.324ZM38.142,0l4.752-7.02.018.324L38.556-13.14h2.412L44.1-8.406h.342L47.61-13.14h2.322l-4.446,6.5-.036-.306L50.31,0H47.88l-3.6-5.238h-.342L40.464,0ZM1.764,22V8.86H3.906V22Zm1.782,0V20.128H9.7V22Zm0-5.742V14.386H9.2v1.872Zm0-5.526V8.86H9.54v1.872ZM11.016,22l4.752-7.02.018.324L11.43,8.86h2.412l3.132,4.734h.342L20.484,8.86h2.322l-4.446,6.5-.036-.306L23.184,22h-2.43l-3.6-5.238h-.342L13.338,22Zm16-4.3v-1.89h2.736a2.791,2.791,0,0,0,1.431-.333,2.257,2.257,0,0,0,.873-.918,2.811,2.811,0,0,0,.306-1.323,2.851,2.851,0,0,0-.306-1.341,2.2,2.2,0,0,0-.873-.909,2.853,2.853,0,0,0-1.431-.324H27.018V8.77H29.5a6.447,6.447,0,0,1,2.763.531,3.87,3.87,0,0,1,1.71,1.494,4.336,4.336,0,0,1,.585,2.295v.288a4.348,4.348,0,0,1-.585,2.286,3.852,3.852,0,0,1-1.71,1.5A6.447,6.447,0,0,1,29.5,17.7Zm-1.8,4.3V8.77h2.16V22ZM36.9,22V8.86h2.142V22Zm1.782,0V20.128h6.156V22Zm0-5.742V14.386h5.652v1.872Zm0-5.526V8.86h5.994v1.872ZM47.664,22V8.77h2.16V22Zm8.064,0-4.176-5.778H54L58.3,22Zm-6.606-4.572V15.61h3.42a2.667,2.667,0,0,0,1.332-.315,2.139,2.139,0,0,0,.855-.873,2.718,2.718,0,0,0,.3-1.3,2.678,2.678,0,0,0-.3-1.278,2.2,2.2,0,0,0-.855-.882,2.608,2.608,0,0,0-1.332-.324h-3.42V8.77h3.132a6.882,6.882,0,0,1,2.628.459,3.709,3.709,0,0,1,1.728,1.377,4.171,4.171,0,0,1,.612,2.358v.288A4.125,4.125,0,0,1,56.6,15.61a3.715,3.715,0,0,1-1.728,1.368,6.934,6.934,0,0,1-2.619.45ZM62.712,22V10.408h2.16V22ZM58.824,10.768V8.86h9.954v1.908Z" transform="translate(360 57.14)" fill="url(#linear-gradient-3)"/>
  </g>
</svg>
