<svg xmlns="http://www.w3.org/2000/svg" xmlns:xlink="http://www.w3.org/1999/xlink" width="63.318" height="49.262" viewBox="0 0 63.318 49.262">
  <defs>
    <linearGradient id="linear-gradient" x1="0.854" x2="0.282" y2="0.893" gradientUnits="objectBoundingBox">
      <stop offset="0" stop-color="#ee9f70"/>
      <stop offset="0.546" stop-color="#d941ab"/>
      <stop offset="1" stop-color="#102fc9"/>
    </linearGradient>
  </defs>
  <g id="logo" transform="translate(-226.703 -201)">
    <circle id="Ellipse_56" data-name="Ellipse 56" cx="6.5" cy="6.5" r="6.5" transform="translate(257 201)" fill="url(#linear-gradient)"/>
    <path id="Path_3853" data-name="Path 3853" d="M60.5-37.387,49.9-11.322q-2.689,6.574-6.392,9.579a14.045,14.045,0,0,1-9.147,3,12.962,12.962,0,0,1-8.882-3.171,9.978,9.978,0,0,1-3.6-7.786,24.442,24.442,0,0,1,2.158-8.732l3.553-8.766q2.025-4.98,2.025-6.74a3.5,3.5,0,0,0-1.395-2.806,5.162,5.162,0,0,0-3.387-1.146,8.026,8.026,0,0,0-5.943,2.872A9.067,9.067,0,0,0,16.2-28.687a5.026,5.026,0,0,0,.93,3.221,7.629,7.629,0,0,0,3.254,2.059q2.457.963,2.457,3.121a3.951,3.951,0,0,1-1.428,3.1,5.212,5.212,0,0,1-3.553,1.245,9.111,9.111,0,0,1-7.188-3.5A12.674,12.674,0,0,1,7.7-27.924a17.306,17.306,0,0,1,5.429-12.65,17.423,17.423,0,0,1,12.7-5.412,13.246,13.246,0,0,1,9.147,3.237A10.45,10.45,0,0,1,38.615-34.6a20.044,20.044,0,0,1-1.76,7.4L31.809-14.742a12.194,12.194,0,0,0-1.1,4.283,3.546,3.546,0,0,0,1.112,2.706A4.069,4.069,0,0,0,34.73-6.707a5.07,5.07,0,0,0,3.8-1.561,18.142,18.142,0,0,0,3.138-5.611L52.594-40.74a8.229,8.229,0,0,1,2.391-3.752,8.056,8.056,0,0,1,4.283-.83h7.172q4.582,0,4.582,3.121a4.262,4.262,0,0,1-1.594,3.569,7.188,7.188,0,0,1-4.516,1.245Z" transform="translate(219 249)" fill="url(#linear-gradient)"/>
  </g>
</svg>
