<svg xmlns="http://www.w3.org/2000/svg" width="36.441" height="36.494" viewBox="0 0 36.441 36.494">
  <path id="Path_3879" data-name="Path 3879" d="M56.947,54.336l-6.8-6.74a16.435,16.435,0,0,0-1.214-21.8A16.38,16.38,0,0,0,25.8,48.993a16.371,16.371,0,0,0,21.8,1.214l6.74,6.74a1.748,1.748,0,0,0,1.275.547,1.654,1.654,0,0,0,1.275-.547A1.89,1.89,0,0,0,56.947,54.336Zm-6.8-16.941a12.486,12.486,0,0,1-3.765,8.987,12.843,12.843,0,0,1-8.987,3.765,12.486,12.486,0,0,1-8.987-3.765,12.843,12.843,0,0,1-3.765-8.987,12.486,12.486,0,0,1,3.765-8.987,12.735,12.735,0,0,1,8.987-3.765,12.486,12.486,0,0,1,8.987,3.765A12.735,12.735,0,0,1,50.146,37.395Z" transform="translate(-21 -21)" fill="#102fc9"/>
</svg>
