<svg xmlns="http://www.w3.org/2000/svg" xmlns:xlink="http://www.w3.org/1999/xlink" width="940" height="420" viewBox="0 0 940 420">
  <defs>
    <clipPath id="clip-path">
      <rect id="Rectangle_1715" data-name="Rectangle 1715" width="940" height="420" rx="37" transform="translate(580 574.584)" fill="#102fc9"/>
    </clipPath>
  </defs>
  <g id="Mask_Group_87" data-name="Mask Group 87" transform="translate(-580 -574.584)" opacity="0.63" clip-path="url(#clip-path)">
    <path id="Path_3895" data-name="Path 3895" d="M682.4,634.36,557.271,510.347c94.965-118.426,86.027-292.714-22.344-401.086C477.947,52.282,403.093,21,322.652,21a300.019,300.019,0,0,0-213.391,88.261C52.282,166.24,21,241.094,21,322.652s31.282,156.412,88.261,213.391C166.24,591.9,241.094,624.3,322.652,624.3c68.151,0,135.185-23.462,187.695-65.917L634.36,682.4q10.055,10.055,23.462,10.055c8.938,0,17.876-3.352,23.462-10.055A34.777,34.777,0,0,0,682.4,634.36ZM557.271,322.652c0,62.565-24.579,121.778-69.268,165.35s-102.785,69.268-165.35,69.268S200.874,532.692,157.3,488,88.034,385.217,88.034,322.652,112.613,200.874,157.3,157.3,258.97,88.034,322.652,88.034c62.565,0,121.778,24.579,165.35,69.268S557.271,258.97,557.271,322.652Z" transform="translate(694 414.252)" fill="#dbd6d6" opacity="0.13"/>
  </g>
</svg>
