<svg width="30" height="30" viewBox="0 0 30 30" fill="none" xmlns="http://www.w3.org/2000/svg">
<circle cx="15" cy="15" r="15" fill="#D4D4D4"/>
<path d="M12.7022 15.851C12.3496 15.851 12.0639 15.5652 12.0639 15.2127C12.0639 14.8603 12.3496 14.5744 12.7022 14.5744H20.3617C20.7142 14.5744 21 14.8603 21 15.2127C21 15.5652 20.7142 15.851 20.3617 15.851H12.7022ZM12.7022 18.9148C12.3496 18.9148 12.0639 18.6291 12.0639 18.2765C12.0639 17.924 12.3496 17.6382 12.7022 17.6382H20.3617C20.7142 17.6382 21 17.924 21 18.2765C21 18.6291 20.7142 18.9148 20.3617 18.9148H12.7022ZM12.7022 12.7872C12.3496 12.7872 12.0639 12.5013 12.0639 12.1489C12.0639 11.7962 12.3496 11.5106 12.7022 11.5106H20.3617C20.7142 11.5106 21 11.7962 21 12.1489C21 12.5013 20.7142 12.7872 20.3617 12.7872H12.7022ZM9 12.1489C9 11.5143 9.51574 11 10.1491 11C10.7834 11 11.2979 11.5156 11.2979 12.1489C11.2979 12.7834 10.7822 13.2978 10.1491 13.2978C9.51451 13.2978 9 12.782 9 12.1489ZM9.76599 12.1489C9.76599 12.3596 9.93803 12.5318 10.1491 12.5318C10.3598 12.5318 10.532 12.3597 10.532 12.1489C10.532 11.938 10.3599 11.7658 10.1491 11.7658C9.93821 11.7658 9.76599 11.9378 9.76599 12.1489ZM9 15.2126C9 14.5781 9.51574 14.0637 10.1491 14.0637C10.7834 14.0637 11.2979 14.5794 11.2979 15.2126C11.2979 15.8472 10.7822 16.3615 10.1491 16.3615C9.51451 16.3615 9 15.8459 9 15.2126ZM9.76599 15.2126C9.76599 15.4235 9.93803 15.5955 10.1491 15.5955C10.3598 15.5955 10.532 15.4235 10.532 15.2126C10.532 15.0018 10.3599 14.8297 10.1491 14.8297C9.93821 14.8297 9.76599 15.0018 9.76599 15.2126ZM9 18.2764C9 17.6418 9.51574 17.1275 10.1491 17.1275C10.7834 17.1275 11.2979 17.6432 11.2979 18.2764C11.2979 18.9109 10.7822 19.4253 10.1491 19.4253C9.51451 19.4253 9 18.9097 9 18.2764ZM9.76599 18.2764C9.76599 18.4872 9.93803 18.6595 10.1491 18.6595C10.3598 18.6595 10.532 18.4874 10.532 18.2764C10.532 18.0657 10.3599 17.8935 10.1491 17.8935C9.93821 17.8935 9.76599 18.0655 9.76599 18.2764Z" fill="#7A7A7A"/>
</svg>
